<svg width="1000" height="500" viewBox="0 0 1000 500" fill="none" xmlns="http://www.w3.org/2000/svg">
  <rect width="1000" height="500" rx="8" fill="#EEF7F8"/>
  <g stroke="#D8EAED" stroke-width="0.8" opacity="0.85">
    <line x1="34.5" y1="0" x2="34.5" y2="500"/>
    <line x1="241.4" y1="0" x2="241.4" y2="500"/>
    <line x1="448.3" y1="0" x2="448.3" y2="500"/>
    <line x1="655.2" y1="0" x2="655.2" y2="500"/>
    <line x1="862.1" y1="0" x2="862.1" y2="500"/>
    <line x1="0" y1="435.9" x2="1000" y2="435.9"/>
    <line x1="0" y1="307.7" x2="1000" y2="307.7" stroke-dasharray="4 5" stroke="#b9dfe4"/>
    <line x1="0" y1="179.5" x2="1000" y2="179.5"/>
    <line x1="0" y1="51.3" x2="1000" y2="51.3"/>
  </g>
  <path d="M242.9 649.7 L241.8 651.9 L240.8 653.8 L233.6 653.3 L225.9 653.5 L221.6 652.1 L221.6 651.9 L219.7 650.7 L227.5 650.8 L234.9 651.3 L237.5 649.5 L239.3 648 L242.9 649.7 Z M-100.7 647.4 L-107.3 648 L-111.9 646.5 L-113.9 645 L-114 644.7 L-116.3 643.6 L-116.3 643.6 L-114.2 642 L-107.7 642.7 L-104.3 644 L-101.7 645.5 L-100.7 647.4 Z M292.6 641.2 L296.8 643.1 L298.3 645.7 L298.7 647.5 L298.9 649.7 L293.5 651 L287.9 652.1 L281.4 653.1 L274.2 654 L266 653.7 L261.5 652.3 L262.1 650.5 L269.5 649.3 L272.4 647.9 L274.6 646.1 L276.2 644.5 L278.3 643 L280.5 641.2 L280.5 641.2 L282.2 641.2 L287.4 640.3 L292.6 641.2 Z M30.3 621.8 L34.8 622.5 L38.9 621.7 L36.9 623.2 L33.7 624.3 L28.9 624 L25.4 622.5 L25.4 622.5 L26.2 621 L30.3 621.8 Z M15.3 621.7 L20.6 623.4 L18.6 623.2 L14.1 622.8 L9.4 621.6 L9.4 621.6 L11.9 620.7 L15.3 621.7 Z M107 615.1 L110.7 615.7 L114.5 615.2 L116.6 617.6 L113.8 617.3 L109.7 617.4 L105.4 617.3 L100.7 617.5 L97.2 616.7 L95.4 614.9 L95.4 614.9 L97.6 614.2 L102 614.8 L107 615.1 Z M212.2 610.9 L212.6 612.8 L212 614.5 L211.1 616.1 L207 616.7 L203.2 617.5 L198.7 617.5 L200.3 615.8 L196.3 616.4 L192.4 617 L189.8 615.7 L189.6 613.9 L193.4 612.3 L193.4 612.3 L195.8 611.8 L199.7 611.9 L200.8 609.7 L201 608.2 L200.9 604.7 L202.8 602.7 L206 602 L207.8 603.6 L208.7 605.2 L210.1 607.2 L211.3 609 L212.2 610.9 Z M246.2 581.8 L244.7 582.8 L242.1 582.1 L239.3 582.5 L236.9 583.5 L234.4 584.6 L232.7 585.9 L232.2 587.5 L232.4 589.1 L234.1 590.6 L231.7 591.6 L228.5 591.9 L226.6 593.3 L224.5 594.7 L222.4 596.5 L221.8 598.1 L223.1 599.9 L224.9 601.2 L227.7 602.2 L230.4 603.5 L231.8 605.2 L232.5 606.8 L233.5 608.5 L235.1 609.9 L236.2 611.5 L236.6 615.4 L237.6 617 L237.9 618.7 L239 620.4 L238.5 622.6 L236.6 624.4 L234.6 625.8 L230 626.4 L228.5 627.9 L226.4 629.3 L221.2 630.9 L216.6 631.6 L212.3 632.5 L207.6 633.4 L204.8 635.2 L199.3 635.4 L193.2 635.2 L187.7 635.5 L181.9 635.5 L183 637.2 L188.3 638 L192.1 639.1 L194.3 640.6 L190.4 642 L184.5 641.6 L179.6 642.6 L179.4 644.4 L179.2 646.1 L183.3 647.5 L184 649.1 L188.4 650.7 L195.7 651.4 L201.9 652.5 L206.9 653.9 L213.1 655.2 L221.7 655.9 L230.2 657 L236 658.3 L242.4 659.7 L245.8 661.7 L247.5 663.3 L251.7 661.8 L257.4 660.6 L263.4 659.2 L270.5 658.1 L276.7 657 L285.3 656.9 L293.7 657.5 L300.7 658.5 L302.9 656.6 L307.7 655.4 L316.4 655.3 L323.2 654.4 L329.7 653.4 L336.9 652.9 L344.5 652.1 L349.8 651 L347.4 649.5 L345.9 648 L345.9 646.4 L339.2 646.6 L332.1 647.2 L325.4 647.2 L324.4 645.7 L324.9 642.5 L326.5 641.6 L331.4 640.5 L337.2 639.5 L341.4 638.3 L345.6 637 L348.7 635.4 L353.4 634.6 L358.1 634 L360.4 633.7 L365.8 633.5 L370.8 632.9 L375.1 632.1 L379.3 631.1 L383.1 630.1 L387.9 628.7 L390.9 627.3 L394.1 626.1 L395.1 624.4 L391.5 623.4 L392.7 621.6 L395 620.3 L398.6 619.4 L402.4 618.4 L405.9 617.1 L408.6 615.4 L410.3 613.4 L412.8 612.2 L416.9 612.5 L418.6 613.9 L422.7 614.1 L422.8 612.5 L424.6 610.8 L428.3 611.2 L429.2 612.8 L433.3 613.1 L437.8 612.3 L442.1 611.8 L446 612.1 L447.5 613.8 L451.3 612.4 L454.8 611.7 L458.7 611.1 L462.5 610.5 L466.1 609.5 L469.9 608.8 L472.9 607.9 L475 606.4 L477.5 607.5 L481.1 606.9 L483.6 608.9 L485.6 610.4 L489.5 609.6 L491 607.9 L494.6 606.7 L499.1 607 L500.4 608.6 L503.3 607 L507 606.5 L511 606.3 L514.7 606.4 L518.5 606.9 L522.3 607.1 L523.9 608.6 L526.1 609.8 L529.9 609.1 L533.9 608.9 L537.9 608.9 L541.7 608.8 L545.1 608.2 L548.8 607.7 L551.8 606.6 L555.1 605.8 L558.6 605.4 L561.2 604.2 L563.1 601.9 L565.1 600.4 L568.6 601.1 L570 602.6 L573 603.6 L576.6 603.3 L579 604.8 L581.5 605.9 L585.1 604.9 L586.3 603 L589.4 602.3 L593 600.9 L596.3 600.3 L600.4 599.4 L603.1 598.5 L605.9 597.5 L608.6 596.6 L611.9 597.1 L615 595.6 L617.2 594.4 L620.5 594.5 L623.3 593.5 L624 592 L626.9 590.8 L629.7 590 L633.1 589.3 L636.3 589 L639.4 589.2 L642.6 589.6 L645.4 590.8 L645.7 592.7 L648.7 594.1 L650.8 595.2 L655 595.7 L657.3 596.9 L660.1 598.1 L663.4 598.3 L666.2 597.5 L669.1 595.7 L672.4 596.7 L675.8 597.2 L679 597.7 L682.4 598 L685.8 598 L688.7 602.4 L688.5 603.5 L688.1 605.5 L684.8 606.6 L682.1 608.1 L682.6 609.8 L686.4 609.7 L686 611.4 L684.2 613 L682.6 614.8 L685.2 616.1 L689.2 616.5 L693.2 615.8 L695.1 614.1 L696.2 612.5 L698.1 611.2 L700.3 609.9 L701.2 608.4 L703 606.3 L705.1 605.9 L709.1 605.7 L712.5 605.2 L716 604.5 L717.7 602.9 L718.7 601.3 L721.1 599.7 L724.5 598.6 L727.4 597.8 L729.3 596.3 L731.2 595.6 L733.7 594.9 L737.2 595.3 L740.3 594.9 L743.6 594.4 L747.4 594.7 L749.9 593.5 L751.7 590.6 L753 591.8 L754.6 593.8 L757.5 594.7 L760.8 595 L764.1 594.5 L767.6 594.8 L770.9 594.9 L773 594.5 L775.9 594.7 L778.6 595.7 L781.7 595.1 L785.4 595.1 L788.6 594.5 L792.1 595.1 L794.4 593.7 L796.2 592.2 L798.5 591.1 L802.9 587.9 L805.1 588.5 L807.7 589.6 L810 591.1 L814.4 593.7 L817.8 593.8 L821 593.8 L824.7 593.3 L828.4 592.7 L831.2 591.6 L833.6 590.3 L837.4 590.1 L840 589.2 L842.7 590.1 L844.5 591.4 L846.9 592.7 L850.7 592.6 L853.1 593.7 L857.2 594.7 L861.5 595.2 L865.1 594.8 L867.8 593.5 L870.1 592.1 L873.2 591.8 L876.3 592.4 L879.9 592.8 L883.1 592.1 L886.2 592.1 L889.3 592.6 L892.4 593 L895.5 592.2 L899.2 591.6 L902.8 591.4 L906.7 591.4 L909.8 591 L913 590.6 L913.9 588.5 L914 586.8 L916.2 588 L916.8 589.9 L918 591.6 L919.4 593.1 L922.3 593.8 L926.2 593.6 L930.7 593.5 L933.8 593.2 L938.4 593.2 L941.6 593.2 L946.1 593.3 L950 593.7 L952.4 595 L951.7 596.6 L954 597.8 L957.7 598.8 L961.5 599.9 L966 600.7 L970.6 601.4 L974.1 602 L978.1 602.1 L980.3 600.7 L983.3 601.9 L986 603.2 L989 604.2 L993.2 604.6 L997.2 605.1 L998.9 606.8 L1002.8 607.8 L1005.4 609.3 L1009.3 610 L1013.2 609.9 L1017 610.2 L1021.1 610.1 L1025.2 610.4 L1029.1 611 L1032.6 612 L1036.2 612.8 L1038.6 614.1 L1038.2 615.8 L1036.4 617.3 L1034.9 619.2 L1033.6 620.7 L1032 622.5 L1027.5 623.1 L1025.5 624.6 L1021 625.6 L1019.5 627.2 L1017.1 628.8 L1014.6 630.2 L1013.2 631.9 L1012.3 633.5 L1012 635.4 L1012 637 L1014 638.7 L1014.7 640.3 L1016.4 641.8 L1022.8 642.4 L1024.1 644.2 L1017.9 644.9 L1012.6 645.8 L1006.1 646 L1003.2 648.4 L1002.6 650.4 L1001.1 652 L999.3 653.6 L1003.9 655 L1005.6 656.8 L1008.6 658.4 L1012.8 659.8 L1017.6 661.1 L1022.8 662.5 L1030.7 663.8 L1032.4 665.9 L1042.4 666.8 L1043 667.2 L1045.6 668.4 L1055.1 667.3 L1063 668.7 L1069 669.7 L1069 692.3 L-172.4 692.3 L-172.4 669.7 L-172.2 669.7 L-169.2 667.3 L-163 668.6 L-162.6 668.5 L-161.6 668.1 L-160.4 667.7 L-159.4 667.3 L-158.9 667.1 L-158.4 667.1 L-158 667.2 L-153 669 L-148.7 667.2 L-147.9 666.9 L-137.8 666.2 L-134.5 667.2 L-132.9 667.7 L-127.7 669.1 L-117.9 670.2 L-110.1 671.5 L-96.8 672.5 L-86.9 671.4 L-72.2 672.2 L-63.9 673.5 L-54.8 672.3 L-45.2 671.1 L-44.5 669.1 L-58 668.9 L-69.2 667.9 L-72.1 666.3 L-81.3 665.3 L-80.7 663.4 L-79.4 661.7 L-78.2 660.1 L-78.8 658.3 L-84.6 657.1 L-87.2 655.6 L-92.5 654.3 L-84.2 654.5 L-76.2 653.9 L-71.2 655.3 L-65.1 654 L-59.4 652.4 L-56.6 651 L-57.8 649.3 L-62.3 648.1 L-67.4 646.8 L-74.4 646.6 L-80.7 646 L-87.3 645.6 L-89.6 644 L-94 642.6 L-96.7 641.1 L-97.8 636.3 L-96.1 636.7 L-93 638 L-87.3 637.6 L-81.9 637 L-79 638.9 L-73.6 638.5 L-69 637.5 L-64.6 636.4 L-60.7 634.9 L-55.5 634.5 L-55.7 632.9 L-56.9 631.3 L-55.9 629.8 L-51.4 629.1 L-49.4 630.5 L-44.1 629.7 L-40.1 628.6 L-35.2 628.5 L-30.5 628.1 L-25.9 627.1 L-22.2 626.1 L-18 625.2 L-15.3 625.5 L-12.9 625.8 L-7.8 625.2 L-3.2 626 L1.5 625.9 L6.1 625.3 L10.7 625.7 L15.9 626.1 L20.7 626 L25.6 626.1 L30.8 626.1 L35.5 626 L39 624.7 L43.2 624.1 L47.5 625 L51.6 624.2 L55.4 622.7 L57.6 624.1 L58.8 625.6 L61 627 L64.6 625.7 L68.7 627.3 L73.4 627.8 L77.4 629 L82.2 628.7 L86.6 628 L91.8 628.2 L96.5 628.7 L101.2 629.5 L103 627.7 L100.8 626.2 L99.1 624.7 L94.7 624.4 L92.7 622.8 L92 621.2 L90.8 618 L93.4 618.6 L97.9 618.9 L102.4 618.6 L106.4 619.3 L109.9 620.5 L111.4 622 L116.1 622.3 L120.5 621.7 L125.3 620.9 L129.5 620.4 L133 621.4 L137.6 621 L140.6 617.8 L143.4 619.7 L147.4 620.5 L151.7 620 L154.5 621.7 L159 621.9 L163.2 622.4 L167.3 623.3 L170 621.7 L171.4 620.2 L174.8 621.9 L179.6 621.5 L183.1 622.4 L185.4 623.8 L190 623.4 L193.6 622.5 L197.1 621.4 L201.3 620.8 L206.2 620.3 L210.6 619.7 L213.9 618.8 L216 617.4 L216.8 615.6 L216.4 613.8 L215.3 612.2 L214.1 610.5 L213 608.8 L212.1 607.3 L211.9 605.6 L212.3 604 L213.9 602.4 L215.2 600.6 L215.8 598.9 L215.1 597.1 L214.7 595.4 L216.4 593.5 L218.3 592.2 L220.5 590.6 L222.9 589.3 L225.6 588 L227 586.2 L228.9 585 L231 583.9 L234.3 583.7 L236.5 582.4 L238.9 581.5 L241.8 581 L244.3 579.9 L246.2 578.6 L248.9 578.1 L251 579.2 L249.7 580.6 L246.2 581.8 Z M214.7 537.8 L219.1 540.4 L224 541.5 L222.4 543.6 L219.1 543.8 L217.4 542.3 L216.2 544 L213.3 545.3 L209.5 544.9 L207 543.6 L203.4 543 L199.1 540.6 L195.6 538.3 L190.8 533.5 L193.7 534.4 L198.5 537.2 L203.1 538.8 L204.9 536.8 L206 533.9 L209.2 532.1 L211.6 532.6 L211.6 532.6 L212.9 534.6 L214.7 537.8 Z M246.4 526.1 L249.1 528 L248.1 529.5 L243.4 530.8 L241.9 529.3 L239 531.2 L237.2 529.3 L241.4 526.7 L244.3 527.8 L246.4 526.1 Z M690.6 520.1 L685.3 520.4 L685.2 518.1 L685.8 516.4 L686 515.5 L688.2 516.8 L691.5 517.4 L691.6 518.2 L690.6 520.1 Z M949.6 482 L953 483.5 L954.9 482.9 L957.5 482.1 L959.6 482.4 L959.9 487.4 L958.7 488.9 L958.3 492.4 L957.1 491.2 L954.7 494.2 L954 493.9 L951.9 493.8 L949.8 490.1 L949.3 487.3 L947.3 483.6 L947.4 481.6 L949.6 482 Z M1044.9 482.6 L1045.7 484.3 L1048.1 482.6 L1049.1 484.4 L1049.1 486.2 L1047.8 488.2 L1045.6 491.3 L1043.8 493 L1045.1 495.1 L1042.4 495.2 L1039.5 496.8 L1038.6 499.6 L1036.6 503.9 L1033.9 505.8 L1032.2 507 L1029 506.9 L1026.8 505.5 L1023 505.2 L1022.4 503.6 L1024.3 500.5 L1028.6 496.3 L1030.9 495.5 L1033.3 493.8 L1036.3 491.6 L1038.4 489.4 L1039.9 486.2 L1041.2 485.1 L1041.7 482.7 L1044.1 480.7 L1044.9 482.6 Z M1050.4 462.2 L1052.9 466.7 L1053 463.8 L1054.5 465 L1055 468.2 L1057.8 469.6 L1060.1 469.9 L1062.1 468.3 L1063.9 468.8 L1063 472.6 L1062 475.1 L1059.3 475 L1058.4 476.3 L1058.7 478.1 L1058.2 478.9 L1056.9 481.2 L1055.2 484.1 L1052.6 485.8 L1052 484.7 L1050.5 484.1 L1052.5 480.6 L1051.4 478.2 L1047.7 476.5 L1047.8 475 L1050.3 473.5 L1050.8 470.2 L1050.7 467.4 L1049.3 464.6 L1049.4 463.8 L1047.7 462.1 L1045 458.3 L1043.6 455.3 L1044.9 454.9 L1046.7 457.3 L1049.4 458.4 L1050.4 462.2 Z M1024.6 402.4 L1023.2 403.4 L1021.3 402.3 L1018.9 400.3 L1016.7 398.1 L1014.4 395.1 L1013.9 393.6 L1015.4 393.7 L1017.3 395.1 L1018.8 396.6 L1019.9 397.8 L1022.8 400.4 L1024.6 402.4 Z M1063.4 381.8 L1064.5 383 L1064 385.3 L1061.8 385.8 L1059.9 385.3 L1059.6 383.4 L1060.9 382 L1062.5 382.5 L1063.4 381.8 Z M1066.8 379.5 L1064.6 380.4 L1064.1 378.8 L1065.9 377.9 L1066.9 377.7 L1069 376.4 L1069 378.4 L1066.8 379.5 Z M-172.1 378.2 L-172.4 378.4 L-172.4 376.4 L-171.7 376.2 L-172.1 378.2 Z M1027.1 378.1 L1025.9 378.6 L1024.8 376.8 L1024.9 375.6 L1027.1 378.1 Z M1024.5 371.5 L1025.1 375 L1024.1 374.4 L1023.4 374.7 L1022.9 373.5 L1022.9 370.2 L1024.5 371.5 Z M620.9 365.6 L621.4 370.8 L622.3 372.8 L622 374.8 L621.4 376.1 L620.2 373.6 L619.6 374.8 L620.2 378 L619.9 379.8 L619 380.8 L618.7 384.4 L617.4 389.4 L615.7 395.3 L613.6 403.4 L612.2 409.3 L610.7 414.3 L607.9 415.3 L604.9 417.1 L602.9 416 L600.1 414.5 L599.2 412.2 L599 408.4 L597.7 405 L597.4 402 L598 398.9 L599.6 398.1 L599.6 396.7 L601.3 393.5 L601.6 390.7 L600.8 388.7 L600.1 386 L599.9 382.1 L601.1 379.7 L601.5 377 L603.3 376.8 L605.2 376 L606.5 375.2 L608 375.1 L609.9 372.7 L612.8 370.1 L613.8 367.9 L613.3 366.1 L614.8 366.6 L616.7 363.6 L616.8 361.1 L617.9 359.1 L619.1 361 L620 362.8 L620.9 365.6 Z M943.3 366.5 L944.6 369.9 L946.8 368.3 L947.9 370.1 L949.6 371.7 L949.2 373.6 L949.9 377.3 L950.5 379.4 L951.3 379.9 L952.3 383.6 L951.9 385.8 L953.1 388.7 L956.8 390.9 L959.2 393 L961.5 394.8 L961.1 395.9 L963.1 398.5 L964.4 403.2 L965.8 402.2 L967.2 404.1 L968 403.4 L968.6 408 L971.1 410.6 L972.7 412.2 L975.4 415.7 L976.3 419.1 L976.4 421.5 L976.2 424.2 L977.8 427.8 L977.6 431.6 L977 433.6 L976.1 437.4 L976.2 439.8 L975.5 442.9 L974 446.8 L971.4 448.9 L970.2 452.2 L969 454.3 L968 458 L966.6 460.1 L965.8 463.3 L965.3 466.3 L965.5 467.6 L963.5 469.1 L959.7 469.3 L956.5 471 L954.9 472.7 L952.8 474.5 L950 472.6 L947.9 471.9 L948.4 469.6 L946.5 470.5 L943.5 473.5 L940.5 472.4 L938.5 471.7 L936.6 471.4 L933.2 470.2 L931 467.5 L930.4 464.3 L929.6 462.1 L927.9 460.4 L924.6 459.9 L925.7 457.8 L924.9 454.6 L923.2 457.6 L920.1 458.4 L921.9 456 L922.4 453.5 L923.8 451.5 L923.5 448.3 L920.7 451.9 L918.5 453.4 L917.2 456.8 L914.5 455 L914.6 452.8 L912.5 449.7 L910.6 448.1 L911.3 447.1 L906.9 444.5 L904.4 444.4 L901.1 442.3 L895 442.7 L890.5 444.2 L886.6 445.7 L883.3 445.4 L879.6 447.6 L876.6 448.5 L876 450.8 L874.7 452.5 L871.8 452.6 L869.6 453 L866.5 452.2 L864.1 452.7 L861.7 452.9 L859.7 455.2 L858.6 455 L856.9 456.2 L855.3 457.5 L852.7 457.4 L850.4 457.4 L846.8 454.6 L844.9 453.8 L845 451.4 L846.7 450.8 L847.3 449.8 L847.2 448.3 L847.6 445.3 L847.2 442.8 L845.4 438.5 L844.8 436 L845 433.6 L843.6 430.8 L843.5 429.6 L842 427.9 L841.5 424.5 L839.6 421.1 L839.1 419.3 L840.6 421.1 L839.5 417.2 L841.2 418.4 L842.2 420.1 L842.1 417.9 L840.4 414.5 L840.1 413.2 L839.3 411.9 L839.7 409.4 L840.4 408.4 L840.8 406.2 L840.5 403.7 L841.9 400.7 L842.2 403.9 L843.6 401 L846.4 399.6 L848.1 397.7 L850.7 396.2 L852.3 395.8 L853.2 396.4 L856 394.8 L858.1 394.3 L858.6 393.4 L859.5 393 L861.4 393.1 L865 391.8 L866.9 389.9 L867.8 387.6 L869.8 385.5 L870 383.8 L870 381.4 L872.5 377.8 L873.9 381.5 L875.4 380.6 L874.1 378.6 L875.2 376.5 L876.8 377.5 L877.2 374.2 L879.1 372.1 L879.9 370.4 L881.6 369.7 L881.7 368.5 L883.2 369 L883.3 367.9 L884.8 367.3 L886.4 366.7 L889 368.7 L890.9 371.2 L893.1 371.3 L895.2 371.7 L894.5 369.3 L896.2 365.9 L897.7 364.8 L897.2 363.7 L898.7 361.3 L900.8 359.8 L902.5 360.3 L905.4 359.5 L905.4 357.3 L902.8 355.9 L904.7 355.3 L907 356.3 L908.8 358.1 L911.7 359.2 L912.7 358.7 L914.8 360 L916.8 358.8 L918.1 359.2 L918.9 358.4 L920.5 360.5 L919.6 362.8 L918.3 364.5 L917.1 364.6 L917.5 366.3 L916.5 368.5 L915.3 370.6 L915.5 371.8 L918.3 374.1 L920.9 375.5 L922.7 377 L925.2 379.5 L926.2 379.5 L928 380.6 L928.5 381.9 L931.8 383.4 L934.1 381.9 L934.7 379.6 L935.4 377.7 L935.9 375.4 L936.9 372 L936.4 369.9 L936.7 368.7 L936.3 366.2 L936.7 363 L937.4 362.1 L936.9 360.7 L937.7 358.5 L938.3 356.1 L938.4 354.9 L939.7 353.3 L940.7 355.4 L940.9 358.1 L941.8 358.6 L941.9 360.4 L943.2 362.5 L943.4 365 L943.3 366.5 Z M1007.3 352.5 L1008.3 354 L1005.9 353.9 L1004.6 351.3 L1006.6 352.3 L1007.3 352.5 Z M864.5 351.5 L863.1 351.5 L858.5 348.5 L861.7 347.7 L863.5 349 L864.7 350.3 L864.5 351.5 Z M1002.9 349.9 L1001.6 350 L999.5 349.5 L998.8 348.9 L999 347.2 L1001.3 347.9 L1002.4 348.8 L1002.9 349.9 Z M1005.8 348.7 L1005.3 349.5 L1002.7 345.8 L1002 343.2 L1003.2 343.2 L1004.4 346.7 L1005.8 348.7 Z M877.4 351 L874.4 352 L874 351.5 L874.3 350 L875.8 347.4 L879.2 345.7 L879.6 344.7 L882.6 343.7 L885 343.6 L886.1 343 L887.4 343.6 L886.1 344.7 L882.5 346.6 L879.6 347.8 L877.4 351 Z M854.8 342.3 L856.1 343.4 L858.2 343.1 L859.1 344.9 L855.1 345.8 L852.7 346.3 L850.8 346.3 L852 343.8 L853.9 343.8 L854.8 342.3 Z M872.1 342.3 L871.6 344.7 L866.4 345.9 L861.8 345.3 L861.8 343.8 L864.5 342.9 L866.7 344.2 L869 343.8 L872.1 342.3 Z M999.6 343.3 L999.7 344.2 L997 342.4 L995.1 340.8 L993.8 339.4 L994.3 339 L995.9 340 L998.8 342 L999.6 343.3 Z M991.5 339.1 L990.8 339.3 L989.3 338.4 L987.9 336.6 L988.1 335.9 L990.1 337.7 L991.5 339.1 Z M822.8 336.7 L829.4 337.1 L830.2 335.3 L836.6 337.4 L837.9 340.1 L843 340.9 L847.3 343.5 L843.3 345.1 L839.5 343.4 L836.4 343.5 L832.8 343.2 L829.6 342.4 L825.6 340.8 L823.1 340.3 L821.6 340.9 L815.4 339.1 L814.8 337.3 L811.6 337 L814 332.9 L818.2 333.1 L820.9 334.8 L822.4 335.1 L822.8 336.7 Z M912.8 334.2 L911.1 337.2 L910.7 333.9 L911.3 332.4 L912.1 331 L912.9 332.2 L912.8 334.2 Z M985.8 336.8 L984.8 337.3 L983.3 335.6 L981.8 332.9 L981.1 329.7 L981.6 329.2 L981.9 330.5 L983 331.5 L984.6 334.2 L986.3 335.6 L985.8 336.8 Z M972.4 331.1 L970.5 331.5 L970 332.7 L968.1 333.7 L966.3 334.7 L964.5 334.7 L961.7 333.4 L959.7 332.3 L960 330.9 L963.1 331.6 L965 331.2 L965.5 329.2 L966 329.1 L966.3 331.3 L968.3 331 L969.3 329.5 L971.2 328 L970.8 325.5 L972.9 325.4 L973.6 326.1 L973.5 328.5 L972.4 331.1 Z M887.1 322.5 L885.8 323.9 L883.4 323.1 L882.7 321.3 L886.2 321.1 L887.1 322.5 Z M898.2 320.9 L899.4 324.2 L896.5 322.4 L893.6 322.1 L891.7 322.3 L889.3 322.2 L890.1 319.8 L894.4 319.7 L898.2 320.9 Z M976.3 326.9 L975.3 328.1 L974.6 325.5 L973.8 323.9 L972.3 322.5 L970.3 320.7 L967.8 319.4 L968.8 318.4 L970.6 319.6 L971.8 320.5 L973.2 321.5 L974.6 323.3 L975.9 324.7 L976.3 326.9 Z M910.8 312.6 L911.8 319.5 L915.4 322.1 L918.3 317.6 L922.2 315 L925.3 315 L928.2 316.5 L930.8 318 L934.5 318.8 L940.5 321.7 L946.8 324.2 L949.2 326.4 L951.1 328.5 L951.7 331 L957.4 333.7 L958.2 336 L955.1 336.4 L955.8 339.3 L958.9 342.1 L961.2 346.6 L963.1 346.5 L963 348.4 L965.7 349.1 L964.6 349.9 L968.3 351.7 L967.9 352.9 L965.6 353.2 L964.8 352.1 L961.8 351.6 L958.3 351 L955.6 348.3 L953.7 345.9 L951.9 342.2 L947.4 340.3 L944.5 341.5 L942.4 342.9 L942.8 346.1 L940.1 347.6 L938.2 346.8 L934.6 346.7 L931.5 343.2 L928 342.3 L927.2 343.5 L922.8 343.6 L924.3 340.2 L926.4 339 L925.5 334.3 L923.9 330.7 L917.2 327.1 L914.4 326.8 L909.2 322.8 L908.2 324.9 L906.8 325.3 L906.1 323.7 L906 321.8 L903.4 319.7 L907.1 318.2 L909.6 318.3 L909.3 317.2 L904.2 317.1 L902.9 314.6 L899.8 313.8 L898.3 311.7 L903 310.7 L904.8 309.3 L910.3 311 L910.8 312.6 Z M880.1 301.6 L877.4 305.9 L874.8 306.7 L871.5 305.8 L865.7 306.1 L862.7 306.7 L862.2 309.9 L865.3 313.7 L867.2 311.8 L873.6 310.3 L873.3 312.3 L871.8 311.7 L870.3 314.2 L867.3 315.8 L870.5 321.3 L869.9 322.8 L873 327.7 L873 330.5 L871.1 331.8 L869.8 330.3 L871.4 326.8 L868.1 328.4 L867.2 327.2 L867.7 325.6 L865.2 323.1 L865.4 318.9 L863.1 320.2 L863.4 325.2 L863.6 331.3 L861.4 331.9 L859.9 330.7 L860.9 326.7 L860.3 322.6 L858.9 322.6 L857.8 319.7 L859.2 316.9 L859.7 313.5 L861.5 307 L862.2 305.3 L865.1 302.1 L867.8 303.4 L872.2 304 L876.1 303.8 L879.5 300.7 L880.1 301.6 Z M892 302.9 L891.8 306.6 L890.1 306.2 L889.5 308.8 L891 311 L890 311.5 L888.6 308.8 L887.6 303.4 L888.3 300 L889.4 298.4 L889.7 300.7 L891.7 301.1 L892 302.9 Z M813.2 332.7 L809.3 332.8 L806.4 329.2 L802 325.7 L800.5 323.1 L797.9 319.7 L796.2 316.5 L793.6 310.5 L790.6 306.9 L789.6 303.2 L788.3 299.9 L785.2 297.2 L783.4 293.6 L780.8 291.2 L777.2 286.4 L776.9 284.3 L779.1 284.4 L784.4 285.3 L787.5 289.5 L790.1 292.3 L792 294.1 L795.3 298.7 L798.8 298.8 L801.7 301.7 L803.7 305.3 L806.3 307.2 L805 310.7 L806.9 312.2 L808.2 312.3 L808.8 315.3 L810 317.7 L812.5 318.1 L814.2 320.8 L813.3 326.1 L813.2 332.7 Z M854.7 299.9 L858.6 303.8 L854.5 304.3 L853.4 307.3 L853.5 311.1 L850.2 314 L850.1 318.3 L848.8 324.8 L848.3 323.3 L844.4 325.2 L843 322.6 L840.5 322.4 L838.8 321 L834.7 322.6 L833.5 320.5 L831.2 320.7 L828.4 320.2 L827.8 314.5 L826.1 313.3 L824.5 309.7 L824 305.9 L824.4 302 L826.4 299.1 L829 300.6 L831.6 299.8 L832.3 296.2 L833.8 295.4 L837.9 294.4 L840.4 291.1 L842.1 288.4 L843.4 286.8 L846.4 284.4 L849 281.4 L850.8 278.1 L852.2 278.1 L853.9 280.2 L854.1 282.1 L856.4 283.3 L859.2 284.6 L859 286.3 L856.7 286.5 L857.3 288.6 L854.8 290 L852.8 293.9 L855.3 297.9 L854.7 299.9 Z M884.1 271.7 L884.4 274.6 L884.6 277 L883.4 280.9 L882.2 276.5 L880.6 278.7 L881.7 281.8 L880.7 283.8 L876.6 281.4 L875.7 278.3 L876.7 276.2 L874.5 274.2 L873.4 276 L871.8 275.8 L869.3 278.2 L868.7 277 L870 273.4 L872.2 272.2 L874.1 270.5 L875.3 272.5 L877.9 271.3 L878.5 269.4 L880.9 269.3 L880.7 266 L883.5 268 L883.8 270.2 L884.1 271.7 Z M728.3 281.2 L725.3 282.2 L723.7 278.8 L723.1 272.6 L724.6 265.7 L727 268.1 L728.6 271.1 L730.3 275.5 L729.8 280 L728.3 281.2 Z M238.2 264.5 L235.3 265 L234.7 264.6 L235.7 263.4 L235.6 261.7 L237.6 261.2 L238.3 261.3 L238.2 264.5 Z M875.8 263.8 L874.6 265.2 L873.5 267.9 L872.4 269.1 L870.3 266.2 L871 265 L871.9 263.8 L872.2 261.2 L874.1 260.9 L873.6 263.8 L876.1 259.7 L875.8 263.8 Z M856.9 267.9 L852.3 271.9 L854 268.9 L856.5 266.3 L858.6 263.3 L860.4 259.1 L861 262.6 L858.7 264.9 L856.9 267.9 Z M868.6 256.9 L870.6 258.2 L872.8 258.2 L872.8 260 L871.2 261.8 L869 263.1 L868.9 261.1 L869.1 258.9 L868.6 256.9 Z M881 255.7 L882 260.5 L879.4 259.4 L879.4 260.8 L880.3 263.4 L878.6 264.4 L878.5 261.4 L877.4 261.2 L876.9 258.6 L878.9 258.9 L878.9 257.3 L876.8 254 L880.1 254.1 L881 255.7 Z M867.3 251.8 L866.4 255.5 L864.9 253.4 L863.2 250.1 L866.1 250.3 L867.3 251.8 Z M866.6 228.6 L868.8 229.8 L869.8 228.7 L870.1 229.8 L869.6 231.6 L870.7 234.6 L869.8 238.2 L867.8 239.6 L867.3 243.1 L868 246.5 L869.9 246.9 L871.4 246.4 L875.7 248.8 L875.4 251.1 L876.5 252.1 L876.1 254.1 L873.4 252 L872.2 249.8 L871.3 251.3 L869.1 248.8 L866 249.4 L864.2 248.5 L864.4 246.7 L865.5 245.6 L864.5 244.6 L864 246.2 L862.3 243.7 L861.8 241.9 L861.7 237.8 L863.1 239.2 L863.4 232.5 L864.5 228.6 L866.6 228.6 Z M222.1 229.8 L221.2 230.9 L218.6 230.8 L216.6 231 L216.4 229.2 L216.9 228.5 L219.7 228.6 L221.5 228.9 L222.1 229.8 Z M183.1 231.3 L182 232 L180.1 231.4 L178.1 229.8 L178.6 228.8 L180 228.5 L180.8 228.7 L183.1 229.1 L184.9 230.1 L185.5 231.3 L183.1 231.3 Z M198 222.8 L201 223.4 L201.4 222.7 L204.1 222.7 L206.2 223.8 L207.1 223.7 L207.7 225.2 L209.6 225.2 L209.5 226.4 L211 226.6 L212.7 228.2 L211.4 229.9 L209.8 229 L208.2 229.1 L207.1 228.9 L206.4 229.7 L205.1 230 L204.6 228.9 L203.4 229.6 L202.1 232.5 L201.2 231.8 L201 230.6 L198.7 229.9 L197.1 230.1 L195 229.8 L193.4 230.6 L191.5 229.3 L191.8 227.9 L195 228.5 L197.6 228.9 L198.8 227.9 L197.3 226.1 L197.3 224.4 L195.1 223.8 L195.9 222.6 L198 222.8 Z M828.8 227.9 L825.8 229.9 L822.9 228.6 L822.8 224.9 L824.5 223 L828.3 221.8 L830.3 221.9 L831.1 223.5 L829.6 225.4 L828.8 227.9 Z M-88.1 226.1 L-88.6 226.9 L-89.4 226.2 L-89.3 225 L-89.9 223.5 L-89.7 223 L-89.1 222.3 L-89.4 221.5 L-89.2 221.1 L-88.9 221.2 L-87.6 221.9 L-87 222.3 L-86.4 222.8 L-85.5 224.3 L-85.6 224.6 L-87 225.5 L-88.1 226.1 Z M-89.9 219.5 L-91.1 219.8 L-91.7 218.9 L-92.1 218.5 L-92.1 218.3 L-91.8 217.9 L-90.5 218.3 L-89.6 219 L-89.9 219.5 Z M-92.3 217.2 L-92.4 217.7 L-94.2 217.5 L-94 217 L-92.3 217.2 Z M-95.4 216.6 L-95.5 216.8 L-95.8 216.8 L-97 216.6 L-97.4 215.6 L-97.6 215.5 L-96.6 214.9 L-96.4 215.2 L-95.4 216.6 Z M-101.2 213.8 L-101.6 214.2 L-102.8 213.4 L-102.6 213.1 L-102.1 212.7 L-101.3 212.8 L-101.2 213.8 Z M173.5 210.4 L174.9 212 L178.1 211.5 L179.3 212.5 L182.3 215.1 L184.4 217.1 L185.5 217 L187.6 217.9 L187.3 219.1 L189.9 219.3 L192.5 221 L192.1 222 L189.8 222.5 L187.5 222.8 L185.1 222.4 L180.2 222.8 L182.5 220.5 L181.1 219.3 L178.8 219.1 L177.6 217.8 L176.8 215.4 L174.9 215.6 L171.7 214.4 L170.6 213.5 L166.1 212.9 L164.9 212 L166.2 211 L162.8 210.7 L160.4 213 L158.9 213 L158.4 214.1 L156.7 214.5 L155.3 214.1 L157.1 212.8 L157.8 211.3 L159.4 210.3 L161.1 209.5 L163.8 209.1 L164.6 208.6 L167.6 208.9 L170.3 208.9 L173.5 210.4 Z M180.9 206.2 L180.1 206.4 L179.2 203.9 L177.9 202.7 L178.7 200 L179.7 200.1 L180.9 203.7 L180.9 206.2 Z M866.1 210.3 L864.6 213.8 L862.8 210.2 L862.4 207 L864.5 202.8 L867.2 199.6 L868.8 200.9 L868.2 203.4 L866.1 210.3 Z M179.9 194.1 L176.2 194.8 L175.9 193.2 L177.6 192.9 L179.8 193 L179.9 194.1 Z M182.8 194.1 L182.2 197.1 L181.5 196.5 L181.6 194.3 L180 192.6 L180 192.1 L182.8 194.1 Z M912.5 161.8 L913 163.2 L911 165.8 L909.6 164.4 L907.9 165.4 L906.9 167.9 L904.7 166.7 L904.7 164.7 L906.6 162.1 L908.6 162.6 L910 160.8 L912.5 161.8 Z M567.5 155.2 L565.2 157.1 L565.4 157.9 L565.5 158.2 L562 159.9 L560.3 159.4 L559.5 157.7 L561.1 157.5 L561.4 157.5 L561.9 156.5 L564.4 156.5 L567.5 155.2 Z M530 155.1 L531.9 156.5 L534.6 156.3 L537.1 156.6 L537.1 157.4 L538.9 156.8 L538.5 158.1 L533.5 158.5 L533.6 157.8 L529.4 156.9 L530 155.1 Z M501.8 144.3 L500.6 147.7 L501.1 149 L500.3 151.2 L497.7 149.6 L496 149.1 L491.1 147 L491.6 144.8 L495.7 145.1 L499.2 144.7 L501.8 144.3 Z M480 131.6 L482.1 134.6 L481.6 140.3 L480.1 140 L478.6 141.4 L477.3 140.3 L477.2 135.1 L476.4 132.7 L478.3 132.9 L480 131.6 Z M934.4 149 L933.1 152.4 L933.7 154.5 L931.9 157.5 L927.5 159.5 L921.4 159.8 L916.5 164.7 L914.2 163 L914.1 159.8 L908.1 160.8 L904 162.8 L900 162.9 L903.4 166 L901.1 173.3 L898.9 175.1 L897.2 173.4 L898.1 169.6 L895.9 168.3 L894.5 165.4 L897.8 164.1 L899.6 161.4 L903 159.2 L905.6 156.3 L912.4 155 L916.1 155.9 L919.7 148.3 L922 150.3 L927.1 146 L929.1 144.4 L931.2 139.2 L930.6 134.3 L932.1 131.6 L935.8 130.9 L937.6 136.8 L937.5 140.3 L934.3 144.6 L934.4 149 Z M481.2 127.6 L480.1 130.9 L478.5 130 L477.7 127.1 L478.4 125.5 L480.7 123.9 L481.2 127.6 Z M944.5 118.9 L946.9 119.8 L949.4 118 L950.1 122.8 L945 124 L942 128.2 L936.6 125.3 L934.7 130 L930.9 130 L930.4 125.8 L932.1 122.5 L935.8 122.3 L936.8 116.4 L937.8 113 L941.9 117.5 L944.5 118.9 Z M228.7 108.8 L231.2 109.3 L234.4 109.2 L232.7 111 L231.5 111.2 L227.1 109.4 L226.2 108 L227.5 106.7 L228.7 108.8 Z M235.2 97.8 L233.5 97.9 L229 96.6 L225.8 94.6 L227 94.2 L231.5 95.3 L235 97.1 L235.2 97.8 Z M22.4 100.4 L20.6 101 L15 99 L13.9 97.5 L10.9 96 L10.2 94.8 L6.7 94 L5.4 91.7 L5.7 90.7 L9.3 91.7 L11.4 92.3 L14.6 92.8 L15.8 94.2 L17.5 96.3 L21 98 L22.4 100.4 Z M254.7 91.1 L252.4 94.8 L254.7 93.4 L257 94.3 L255.8 95.8 L258.8 97 L260.4 95.9 L263.9 97.2 L262.8 100.4 L265.2 99.6 L265.7 101.9 L266.7 104.5 L265.3 108.3 L263.7 108.5 L261.5 107.7 L262.2 104.2 L261.2 103.6 L257.2 107.3 L255.2 107.2 L257.6 105.2 L254.3 104.1 L250.6 104.4 L243.9 104.3 L243.4 103 L245.5 101.5 L244 100.3 L246.9 97.8 L250.5 90.9 L252.6 88.5 L255.6 87 L257.2 87.2 L256.6 88.4 L254.7 91.1 Z M-9.3 76.8 L-9.3 76.8 L-9.3 76.8 L-9.3 76.8 L-6 76.4 L-7.1 81.3 L-4.1 84.7 L-5.4 84.7 L-7.5 82.7 L-8.8 80.8 L-10.5 79.4 L-11.2 77.6 L-11 76.2 L-9.3 76.8 Z M943.6 90.8 L947.1 98.4 L942 97 L939.9 103.2 L943.2 107.5 L943.1 110.5 L940.5 107.9 L938.2 111.3 L937.6 107.7 L938 103.5 L937.6 98.9 L938.4 95.7 L938.6 89.9 L936.5 85.7 L936.8 79.9 L940 77.9 L938.7 76 L940.2 75.4 L941.1 78.2 L942.3 82.3 L942.2 86.5 L943.6 90.8 Z M424.9 84.4 L418.8 86.9 L413.9 86.2 L416.7 81.8 L414.9 77.4 L419.6 74.1 L422.2 72.1 L425.1 71.9 L428.8 74.6 L426.9 77.5 L427.5 80.5 L424.9 84.4 Z M492 70 L490 73.5 L486.4 71.1 L485.9 69.3 L490.9 67.9 L492 70 Z M-79.3 63.6 L-82.8 65.2 L-84.5 64.1 L-85.1 62.1 L-81.9 60.6 L-80.1 60 L-77.8 60.3 L-76.3 61.6 L-79.3 63.6 Z M437.9 57.1 L434.2 61.7 L437.7 61.2 L441.5 61.2 L440.6 64.7 L437.5 68.5 L441.1 68.8 L444.4 74.3 L446.8 74.9 L448.9 79.8 L449.9 81.5 L454.1 82.3 L453.7 85 L451.9 86.3 L453.3 88.5 L450.2 90.7 L445.6 90.7 L439.7 91.9 L438.1 91 L435.8 93 L432.6 92.6 L430.2 94.2 L428.4 93.3 L433.4 88.8 L436.5 87.9 L431.1 87.2 L430.1 85.5 L433.7 84.2 L431.8 81.9 L432.5 79.1 L437.6 79.5 L438.1 77 L435.8 74.3 L431.6 73.5 L430.7 72.4 L432 70.5 L430.9 69.3 L429 71.3 L428.8 67.2 L427.1 65 L428.3 60.6 L431 57.1 L433.8 57.5 L437.9 57.1 Z M-122.7 51.7 L-124.8 52.3 L-127.1 51.5 L-129.2 50.4 L-125.8 49.6 L-123 50 L-122.7 51.7 Z M174.9 42.1 L173.6 44.3 L172.1 43.9 L171.2 42.7 L171.3 42.4 L172.7 41.1 L174.1 41.2 L174.9 42.1 Z M165.9 39.7 L161.8 42.1 L159.4 42 L158.6 40.8 L161.2 38.8 L165.9 38.9 L165.9 39.7 Z M-143.9 35.1 L-141.8 35.9 L-139.6 35.5 L-136.8 36.6 L-133.4 37.2 L-133.7 37.7 L-136.3 38.6 L-138.9 37.6 L-140.2 36.9 L-143.3 37.1 L-144.1 36.7 L-143.9 35.1 Z M154.6 27.1 L155.3 29 L157 28.3 L159 29.4 L162.8 30.9 L166.8 32.2 L167.1 34.3 L169.6 33.9 L172.1 35.4 L169 36.7 L163.6 35.7 L161.7 33.8 L158.3 36 L153.4 38.2 L152.2 35.7 L147.5 36.1 L150.5 34 L150.9 30.7 L152.1 26.8 L154.6 27.1 Z M398.2 23.7 L397.4 26.5 L401.3 29.4 L396.9 32.6 L386.9 35.6 L383.9 36.3 L379.4 35.7 L369.8 34.4 L373.2 32.5 L365.7 30.4 L371.8 29.6 L371.6 28.3 L364.4 27.3 L366.7 24.5 L371.9 23.9 L377.3 26.8 L382.6 24.5 L386.9 25.7 L392.5 23.4 L398.2 23.7 Z M186.7 20.7 L182.8 20.9 L181.9 18.9 L183.4 16.5 L186.6 15.9 L189.3 17 L189.3 18.9 L188.9 19.5 L186.7 20.7 Z M-155.2 23.1 L-152.9 24.2 L-153.7 21.1 L-144.3 21.7 L-137.6 25.7 L-141 27.6 L-146.7 28 L-146.7 32.2 L-148.1 33.1 L-151.4 33 L-154 31.5 L-158.6 30.2 L-159.3 28.4 L-162.8 27.7 L-166.8 28.2 L-168.6 26.8 L-167.9 25.2 L-172 26.2 L-170.5 28.2 L-172.4 30 L-172.4 13 L-164 16.2 L-154.9 20.5 L-155.2 23.1 Z M118.5 12.4 L116.3 13.9 L111.7 12.6 L108.9 13 L104.1 11.1 L107.2 9.8 L109.6 7.9 L113.3 9.1 L115.3 9.9 L116.4 10.7 L118.5 12.4 Z M1069 5 L1065.2 5.2 L1064.6 3.9 L1069 2.1 L1069 5 Z M-167.9 4.7 L-172.4 5 L-172.4 2.1 L-172 1.9 L-169 1.9 L-164.1 3.1 L-164.4 3.7 L-167.9 4.7 Z M136 10.7 L136 15.1 L140.6 11.7 L144.8 14.5 L143.7 17.6 L147.1 20.5 L150.7 17.4 L153.2 13.7 L153.4 9.1 L158.3 9.4 L163.4 10 L168 12.1 L168.2 14.2 L165.6 16.5 L168.1 18.8 L167.6 20.9 L160.9 23.9 L156.1 24.5 L152.5 23.3 L151.5 25.4 L148.2 29 L147.2 30.9 L143.2 33.8 L138.2 34 L135.5 35.9 L135.3 38.6 L131.3 39.2 L127 42.6 L123.3 47.4 L122 50.8 L121.8 55.8 L126.8 56.5 L128.4 60.5 L130 63.7 L134.8 62.9 L141.2 64.7 L144.7 66.4 L147.2 68.4 L151.5 69.6 L155.1 71.4 L160.8 71.6 L164.6 72 L164 75.7 L165.1 80 L167.6 84.8 L172.7 88.9 L175.4 87.5 L177.2 83.1 L175.4 76.3 L173 74.1 L178.5 72.1 L182.4 69.1 L184.3 66.1 L184.1 63.2 L181.7 59.6 L177.5 56.4 L181.6 51.9 L180.1 48 L178.9 41.4 L181.3 40.4 L187.3 41.5 L190.8 42 L193.7 40.8 L196.9 42.3 L201.1 44.8 L202.2 46.4 L208.3 46.7 L208.2 50.3 L209.4 55.7 L212.5 56.4 L215 58.9 L220 56.6 L223.3 51.8 L225.6 49.8 L228.3 53.7 L232.8 59.1 L236.6 64.2 L235.2 66.9 L239.8 69.3 L242.9 71.8 L248.4 72.9 L250.6 74.2 L251.9 77.9 L254.6 78.4 L256 80 L256.3 84.8 L253.8 86.5 L251.3 88 L245.6 89.5 L241.3 93 L235.4 93.7 L228.1 92.8 L222.9 92.7 L219.3 93 L216.4 96.1 L212 98 L207.1 103.7 L203.1 107.6 L206 106.9 L211.6 101.3 L218.8 97.7 L223.9 97.3 L227 99.4 L223.7 102.3 L224.8 106.9 L226 110.1 L230.4 112.2 L236.1 111.6 L239.6 106.8 L239.8 109.9 L242.1 111.5 L237.8 114.3 L230.2 116.8 L226.7 118.5 L222.9 121.6 L220.3 121.3 L220.1 117.7 L226.1 114.1 L220.6 114.3 L216.8 114.8 L217.4 116.2 L213.7 118.3 L210.1 119.7 L206.5 121 L204.5 123.8 L204.1 124.5 L204.1 126.8 L205.2 129 L206.6 129.1 L206.3 127.6 L207.3 128.5 L207 129.8 L204.7 130.4 L203 130.4 L200.5 131.1 L199 131.3 L197 131.5 L194.1 132.8 L199.2 132 L200.2 132.8 L195.4 134.1 L193.2 134.1 L193.3 133.5 L192.2 134.7 L193.2 134.9 L192.5 138 L190 141.3 L189.7 140.2 L189 140 L187.8 138.9 L188.6 141.2 L189.4 142 L189.5 143.6 L188.4 145.2 L186.4 148.6 L186.1 148.5 L187.2 145.6 L185.4 143.9 L185 140.4 L184.3 142.2 L185.1 144.9 L182.9 144.3 L185.2 145.6 L185.3 149.7 L186.3 150 L186.7 151.5 L187.1 155.8 L185 158.9 L181.4 160.2 L179.1 162.7 L177.4 163 L175.7 164.6 L175.2 166 L171.4 168.8 L169.4 170.8 L167.8 173.3 L167.3 176.4 L167.9 179.3 L169 183 L170.6 186 L170.6 187.9 L172.2 192.8 L172.1 195.7 L172 197.4 L171.1 200 L170.1 200.5 L168.4 200 L167.8 198.1 L166.5 197.1 L164.7 193.5 L163.1 190.2 L162.6 188.5 L163.3 185.7 L162.3 183.3 L159.6 179.8 L158.3 179.1 L154.8 181 L154.2 180.8 L152.5 178.8 L150.3 177.8 L146.4 178.3 L143.4 177.8 L140.8 178.1 L139.3 178.7 L140 179.9 L139.9 181.7 L140.6 182.5 L140 183.1 L138.7 182.4 L137.4 183.3 L134.9 183.1 L132.3 180.9 L129.3 181.4 L126.8 180.4 L124.7 180.7 L121.8 181.7 L118.6 184.9 L115.2 186.7 L113.3 188.8 L112.5 190.7 L112.5 193.6 L112.7 195.7 L113.3 197.1 L113.3 197.1 L113.3 197.2 L112 200.9 L111.4 204 L111.1 209.7 L110.8 211.8 L111.4 214.1 L112.5 216.2 L113.1 219.5 L115.4 222.7 L116.2 225.1 L117.6 227.2 L121.2 228.4 L122.7 230.2 L125.7 229 L128.3 228.5 L130.9 227.8 L133.1 227 L135.3 225.3 L136.1 222.8 L136.4 219.2 L137 217.9 L139.3 216.8 L143 215.8 L146 216 L148.1 215.6 L148.9 216.5 L148.8 218.6 L147 221.1 L146.1 223.7 L146.8 224.5 L146.3 226.3 L145.4 229.7 L144.5 228.6 L143.8 228.6 L143.8 229.3 L144.5 229.3 L144.4 230.4 L143.8 232.3 L144.1 233 L143.8 234.5 L144 234.9 L143.6 237 L142.9 238.2 L142.3 238.3 L141.6 239.8 L142.7 240.6 L143 239.9 L144.1 240.5 L144.4 240.6 L145.2 239.9 L146.2 239.8 L146.5 240.2 L147 240 L148.6 240.4 L150.2 240.2 L151.3 239.8 L151.7 239.3 L152.8 239.5 L153.6 239.8 L154.5 239.7 L155.2 239.3 L156.8 239.9 L157.4 240 L158.4 240.8 L159.4 241.8 L160.7 242.4 L161.6 243.6 L161.3 244 L161.1 245 L161.4 246.5 L160.6 248 L160.3 249.7 L160.2 251.6 L160.4 252.7 L160.4 254.6 L159.9 255 L159.6 256.9 L159.8 258 L159.1 259.1 L159.3 260.2 L159.8 260.9 L160.7 263.3 L162 265 L163.6 266.8 L164.9 268.3 L164.8 269.2 L166.2 269.4 L166.5 269.1 L167.5 270.1 L169.1 269.8 L170.6 268.8 L172.7 267.9 L173.9 266.6 L175.8 266.9 L175.7 267.3 L177.6 267.4 L179.1 268.2 L180.2 269.5 L181.5 270.6 L183.3 270.8 L185.9 267.8 L187.3 267.3 L187.4 265.9 L188 262.3 L190 260.3 L192.1 260.2 L192.4 259.4 L195.1 259.7 L197.8 257.6 L199.2 256.6 L200.8 254.5 L202.1 254.8 L203 255.9 L202.3 257.4 L202.2 258.4 L200.2 258.9 L201.3 260.8 L201.3 263 L199.7 265.5 L201 268.9 L202.5 268.6 L203.3 265.6 L202.2 264.1 L202.1 260.8 L206.4 259.1 L205.9 257.1 L207.1 255.7 L208.3 258.7 L210.7 258.8 L213 261.2 L213.1 262.6 L216.2 262.6 L219.9 262.2 L221.9 264.1 L224.5 264.6 L226.5 263.3 L226.5 262.2 L230.8 262 L234.9 261.9 L232 263.2 L233.1 265.2 L235.9 265.5 L238.5 267.6 L239.1 271 L240.9 270.9 L242.2 271.9 L244.5 273.5 L246.6 276.3 L246.7 278.5 L248 278.6 L249.9 280.7 L251.2 282.2 L255.3 283 L255.7 282.3 L258.5 281.9 L262.2 283.1 L263.4 283.6 L265.9 284.6 L269.6 288.2 L270.1 289.9 L271.3 289.7 L272.2 292.1 L274.1 299.6 L276 300.3 L276 303.2 L273.5 306.7 L274.5 308 L280.6 308.7 L280.7 313 L283.4 310.2 L287.7 311.7 L293.4 314.3 L295.1 316.8 L294.5 319.2 L298.6 317.9 L305.3 320.1 L310.4 320 L315.5 323.5 L319.9 328.3 L322.6 329.5 L325.5 329.7 L326.8 331 L327.9 336.5 L328.5 339.1 L327.1 346.1 L325.4 348.9 L320.5 354.9 L318.3 359.7 L315.8 363.4 L314.9 363.5 L314 366.6 L314.2 374.6 L313.2 381.2 L312.9 384 L311.8 385.7 L311.2 391.4 L307.7 397 L307.1 401.4 L304.3 403.3 L303.5 405.9 L299.7 405.8 L294.3 407.5 L291.9 409.4 L288 410.6 L284 414 L281.1 418.3 L280.5 421.5 L281.1 423.8 L280.5 428.1 L279.7 430.2 L277.3 432.6 L273.5 440.1 L270.4 443.5 L268.1 445.5 L266.5 449.6 L264.2 452 L262.7 454.7 L258.8 457.1 L256.3 456.2 L254.4 456.7 L251.2 454.8 L248.9 455 L246.8 452.6 L246.6 454.8 L250.9 458.5 L250.5 461.4 L252.6 463.3 L252.5 465.4 L249.1 470.9 L244 473.2 L237.1 474.1 L233.3 473.6 L234 476.2 L233.3 479.4 L234 481.5 L231.9 483 L228.4 483.6 L225.1 482.1 L223.7 483.2 L224.2 487.4 L226.5 488.7 L228.4 487.4 L229.5 489.6 L226.3 490.9 L223.5 493.6 L223 497.9 L222.2 500.2 L218.9 500.2 L216.2 502.4 L215.2 505.6 L218.6 508.7 L221.9 509.6 L220.7 513.4 L216.7 515.8 L214.4 520.8 L211.3 522.5 L209.9 524.5 L211 528.9 L213.3 531.4 L211.8 531.2 L208.8 531.2 L207.1 532.2 L204 533.8 L203.4 537.7 L202 537.8 L198.1 536.5 L194.1 533.5 L189.8 531 L188.8 528.3 L189.7 525.8 L188 523 L187.6 515.7 L189 511.6 L192.7 508.3 L187.4 507 L190.7 503.3 L191.9 496.2 L195.7 497.7 L197.5 488.8 L195.2 487.7 L194.1 493 L192 492.4 L193 486.3 L194.2 478.4 L195.8 475.5 L194.8 471.3 L194.5 466.5 L196 466.3 L198.1 459.4 L200.5 452.6 L201.9 446.2 L201.1 439.8 L202.2 436.3 L201.8 431 L203.8 425.8 L204.4 417.5 L205.5 408.7 L206.6 399.1 L206.3 392.1 L205.6 386.1 L202.2 383.6 L201.9 381.9 L195 377.6 L188.8 372.9 L186.2 370.3 L184.7 366.8 L185.3 365.5 L182.4 359.9 L179 352 L175.7 343.5 L174.3 341.6 L173.2 338.4 L170.6 335.6 L168.1 333.9 L169.2 332 L167.5 327.9 L168.6 324.9 L171.4 322.2 L173.2 319 L172.5 317.2 L171.1 319.2 L169.1 317.3 L169.8 316.1 L169.2 312.2 L170.4 311.6 L171 308.9 L172.3 306.2 L172.1 304.4 L174 303.5 L176.4 301.8 L175.9 300.5 L177.2 300.1 L177 298 L177.8 296.5 L179.5 296.2 L181 293.5 L182.3 291.2 L181 290.2 L181.7 287.7 L180.9 283.8 L181.7 282.7 L181.1 279.1 L179.7 276.8 L178.6 275.6 L177.8 273.3 L178.7 272.1 L177.8 271.8 L177.2 270.4 L175.4 269.2 L173.9 269.5 L173.2 271 L171.8 272.1 L171.1 272.2 L170.8 273.1 L172.4 275.4 L171.5 276 L171 276.6 L169.4 276.8 L168.8 274.3 L168.3 275 L167.2 274.8 L166.5 273 L165.1 272.8 L164.2 272.3 L162.7 272.3 L162.6 273.2 L162.2 272.5 L160.3 271.6 L159.6 270.7 L160 270 L159.9 269 L158.9 268 L157.6 267.1 L156.4 266.6 L156.2 265.4 L155.3 264.6 L155.5 265.8 L154.8 266.8 L154 265.7 L152.9 265.2 L152.4 264.4 L152.4 263.1 L152.9 261.7 L151.9 261.1 L152.7 260.3 L151.5 259 L149.9 257.2 L149.2 255.8 L147.7 254.5 L146 252.5 L146.4 251.9 L146.9 252.5 L147.2 252.2 L146.6 250.9 L145.5 250.5 L145.2 251.5 L143.2 251.4 L141.9 251 L140.5 250.2 L138.6 249.9 L137.6 249 L135.8 248.2 L133.7 248.2 L132.1 247.3 L130.2 245.6 L126.3 241 L124.6 239.6 L121.8 238.5 L119.8 238.8 L117.1 240.4 L115.3 240.8 L112.9 239.7 L110.3 238.9 L107.1 236.9 L104.5 236.3 L100.6 234.3 L97.7 232.3 L96.8 231.1 L94.9 230.9 L91.4 229.5 L89.9 227.6 L86.2 225.1 L84.5 222.4 L83.7 220.4 L84.8 220 L84.5 218.7 L85.3 217.6 L85.3 216.1 L84.1 214.2 L83.8 212.5 L82.7 210.4 L79.6 206.1 L76.2 202.8 L74.5 200.1 L71.5 198.4 L70.9 197.3 L71.4 194.7 L69.7 193.7 L67.6 191.6 L66.8 188.6 L64.9 188.3 L62.9 186 L61.3 184 L61.1 182.6 L59.3 179.4 L58.1 176.1 L58.1 174.5 L55.6 172.8 L54.5 173 L52.5 171.8 L51.9 173.5 L52.5 175.6 L52.8 178.8 L54 180.6 L56.6 183.5 L57.2 184.5 L57.7 184.8 L58.1 186.3 L58.8 186.2 L59.4 189 L60.5 190.1 L61.2 191.6 L63.4 193.7 L64.5 197.7 L65.6 199.6 L66.5 201.6 L66.7 203.9 L68.4 204 L69.8 205.9 L71 207.8 L70.9 208.6 L69.5 210.2 L68.9 210.2 L67.9 207.6 L65.7 205.1 L63.2 203.1 L61.4 202 L61.6 198.8 L61 196.5 L59.4 195.2 L57 193.3 L56.6 193.8 L55.7 192.7 L53.6 191.7 L51.5 189.2 L51.8 188.9 L53.2 189.1 L54.5 187.5 L54.6 185.6 L52 182.6 L49.9 181.4 L48.7 178.7 L47.4 175.9 L45.8 172.5 L44.4 168.7 L43.8 166.5 L41.6 164 L40 163.5 L39.6 162.3 L37.7 162.1 L36.4 160.9 L33.2 160.5 L32.3 159.8 L31.9 157.4 L28.6 153.2 L25.7 147.2 L25.8 146.2 L24.3 144.8 L21.6 141.2 L21.2 137.7 L19.3 135.4 L20.1 131.9 L20 128.2 L18.9 124.9 L20.2 120.9 L21 113.1 L20.4 107.4 L19.3 103.8 L18.3 101.8 L18.7 100.9 L23.7 102.4 L25.6 106.4 L26.4 105.3 L25.9 101.8 L24.7 98.3 L24.2 98.3 L17.6 94.1 L15.1 92.2 L8.8 90.5 L6.9 86.7 L7.4 84.1 L3 82.2 L2.4 78.8 L-1.8 75.7 L-1.8 73.5 L-3.7 71.9 L-6.8 70.5 L-7.8 66.8 L-12.2 63.3 L-14.1 59.3 L-17.4 59 L-22.9 58.9 L-26.9 57.7 L-34 53.3 L-37.3 52.4 L-43.4 50.9 L-48.1 51.3 L-54.9 49.3 L-59 47.5 L-62.8 48.4 L-62.1 51.4 L-64 51.6 L-68 52.5 L-71.1 54 L-74.9 54.9 L-75.4 52.4 L-73.8 48.2 L-70.2 46.9 L-71.1 45.8 L-75.5 48.2 L-77.9 51 L-82.8 54.1 L-80.3 56.1 L-83.6 59.2 L-87.3 61 L-90.7 62.3 L-91.6 64.2 L-97 66.4 L-98 68.4 L-102.1 70.2 L-104.4 69.9 L-107.7 71.1 L-111.2 72.5 L-114 74 L-120 75.2 L-120.5 74.5 L-116.7 72.5 L-113.3 71.2 L-109.7 68.8 L-105.4 68.3 L-103.7 66.6 L-98.9 64 L-98.1 63.2 L-95.6 61.7 L-95 58.4 L-93.2 55.9 L-97.2 57.2 L-98.3 56.5 L-100.2 58 L-102.5 55.8 L-103.4 57.4 L-104.7 55.3 L-108.1 57 L-110.2 57 L-110.5 54.4 L-109.9 52.8 L-112.1 51.3 L-116.6 52.1 L-119.5 50.1 L-121.9 49.1 L-121.9 46.7 L-124.6 44.9 L-123.2 42.4 L-120.4 40 L-119.2 37.8 L-116.4 37.5 L-114 38.2 L-111.2 36.1 L-108.7 36.5 L-106.1 35.2 L-106.8 33.2 L-108.7 32.5 L-106.1 30.8 L-108.2 30.9 L-111.9 31.8 L-113 32.7 L-115.7 31.8 L-120.6 32.3 L-125.6 31.3 L-127.1 29.5 L-131.4 27.1 L-126.6 25.3 L-118.9 23.2 L-116 23.2 L-116.5 25.3 L-109.2 25.1 L-112 22.5 L-116.3 20.9 L-118.7 18.7 L-122 16.9 L-126.8 15.6 L-124.8 13.3 L-118.7 13.2 L-114.4 11.2 L-113.6 9.2 L-110 7.1 L-106.7 6.6 L-100.1 4.7 L-97 5 L-91.7 2.7 L-86.4 3.6 L-83.9 5.6 L-82.4 4.7 L-76.6 5 L-76.8 6 L-71.5 6.7 L-68 6.3 L-60.7 7.6 L-54.1 8 L-51.4 8.6 L-46.9 7.9 L-41.6 9.2 L-37.9 9.8 L-31.4 10.8 L-26 12.9 L-22.4 13.3 L-19.4 11.5 L-15.2 10.1 L-10.1 10.7 L-4.9 8.8 L0.7 7.7 L3.1 9.5 L5.6 8.5 L6.4 6.5 L8.8 6.9 L14.6 10.8 L19.2 7.9 L19.7 11.1 L23.9 10.4 L25.2 9.2 L29.4 9.4 L34.7 11.2 L42.7 12.8 L47.5 13.5 L50.9 13.2 L55.5 15.4 L50.7 17.5 L56.9 18.4 L66.2 17.9 L69.2 17.2 L72.8 19.7 L76.6 17.6 L73.1 15.8 L75.3 14.3 L79.5 14.1 L82.2 13.7 L85 14.7 L88.5 17 L92.3 16.7 L98.4 18.6 L103.8 17.9 L108.8 18 L108.4 15.4 L111.5 14.6 L116.8 16.1 L116.8 20.1 L119 16.7 L121.8 16.8 L123.3 12.5 L119.6 9.9 L115.6 8.2 L115.9 3.4 L120 0.3 L124.5 1 L128 2.9 L132.7 7.7 L129.6 9.8 L136 10.7 Z M54.6 -4.8 L52.9 -2.8 L60.5 -4.1 L65.3 -1.9 L69.2 -4.1 L72.4 -2.7 L75.2 1.5 L76.9 -0.3 L74.5 -4.7 L77.5 -5.3 L81 -4.6 L84.8 -2.9 L87 1.3 L88.1 4.3 L93.8 6.4 L100.1 8.4 L99.7 10.3 L94 10.7 L96.2 12.3 L95.1 13.9 L88.8 13.2 L82.9 12.1 L78.9 12.3 L72.4 13.8 L62.2 14.5 L57.5 14.8 L55.7 12.8 L51 11.6 L47.9 12.1 L43.7 8.7 L45.9 8.3 L51.3 7.5 L56.1 7.7 L60.6 7 L54 6 L46.6 6.3 L41.7 6.2 L39.9 4.7 L47.9 3 L42.6 3 L36.5 1.9 L39.4 -1.3 L41.8 -3 L51.1 -5.6 L54.6 -4.8 Z M87.9 -6.1 L84.9 -3.2 L79.5 -6.2 L80.7 -6.8 L85.3 -7 L87.9 -6.1 Z M185 -4.7 L185.3 -3.5 L181.7 -3.7 L178 -3.7 L174.2 -3.2 L173.2 -3.4 L169.4 -5.7 L169.5 -7.2 L171.2 -7.5 L179.1 -7.1 L185 -4.7 Z M149.8 -4.9 L152.5 -2.3 L155.7 -5.7 L164.4 -7.5 L170.3 -3.1 L169.8 -0.3 L176.7 -1.5 L179.9 -3.2 L187.6 -1 L192.3 1 L192.8 2.9 L199.2 1.9 L202.8 4.6 L211.1 6.3 L214.1 8 L217.3 12 L211 14 L219.1 16.8 L224.6 17.7 L229.6 21.7 L235 22 L233.9 25 L227.9 29.9 L223.6 28.1 L218.2 24 L213.7 24.5 L213.3 27 L216.9 29.5 L221.6 31.4 L223 32.6 L225.3 36.8 L224.1 39.9 L219.7 38.7 L211.1 35.3 L216 39 L219.6 41.5 L220.1 43 L210.8 41.3 L203.4 38.8 L199.2 36.8 L200.4 35.6 L195.2 33.4 L190.2 31.3 L190.3 32.5 L180.3 33.2 L177.4 31.7 L179.7 28.6 L186.1 28.5 L193.2 28 L192.1 26.4 L193.3 24.3 L197.8 20.2 L196.8 18.3 L195.5 16.8 L190.2 14.7 L183.2 13.3 L185.4 12.2 L181.8 9.5 L178.7 9.3 L176 7.8 L174.2 9.1 L167.9 9.6 L155.4 8.7 L148.1 7.4 L142.5 6.8 L139.6 5.3 L143.2 3.3 L138.3 3.3 L137.2 -1 L139.9 -4.8 L143.4 -6.6 L152.3 -7.7 L149.8 -4.9 Z M102.2 -7.9 L106.3 -7 L112.5 -7.5 L113.4 -6.3 L110.2 -4.2 L115.4 -2.4 L114.8 1.5 L109.1 3.1 L105.8 2.8 L103.4 1.1 L94.8 -2.2 L94.9 -3.5 L101.9 -3 L98.1 -5.8 L102.2 -7.9 Z M943.5 -5.2 L938.2 -5.2 L931.2 -5.6 L930.6 -5.9 L933.8 -7.5 L938.1 -7.9 L943 -6.3 L943.5 -5.2 Z M126.9 -3.3 L123.2 -0.1 L119.3 -0.3 L117.1 -4 L117.2 -6.1 L119 -8 L122.4 -9.1 L129.6 -9 L136.2 -7.9 L131 -4.1 L126.9 -3.3 Z M32.9 2.6 L23.8 4.7 L22 2.8 L14 0.6 L15.2 -0.8 L17.9 -4.4 L20.9 -7.2 L17.5 -9.8 L29.2 -10.5 L34.1 -9.6 L42.9 -9.3 L46.3 -8.1 L50 -6.3 L45.6 -5.2 L37.2 -2.2 L32.9 0.8 L32.9 2.6 Z M968 -13.2 L964.1 -11.5 L958.5 -11.9 L952.1 -13.6 L953 -14.9 L959.4 -14.3 L968 -13.2 Z M125.5 -12.7 L123.6 -11.1 L118.6 -11.4 L114.4 -12.5 L116.2 -14.4 L121.2 -15.6 L124.2 -14.1 L125.5 -12.7 Z M948.6 -15.2 L945.9 -12.1 L933.2 -12.2 L927.4 -11.2 L920.6 -13.9 L922.5 -16.9 L927 -17.7 L936.1 -17.5 L948.6 -15.2 Z M108.6 -20.2 L111.3 -18.2 L111.4 -16 L109.8 -12.8 L104.1 -12.4 L100.4 -13.1 L100.5 -15.6 L94.8 -15.2 L94.6 -18.5 L98.3 -18.4 L103.5 -19.9 L108.4 -19.6 L108.6 -20.2 Z M75.1 -18 L76.5 -16.4 L79.6 -17.1 L83.2 -17 L83.8 -14.9 L81.7 -12.8 L70 -12.2 L61.3 -10.3 L56.1 -10.2 L55.6 -11.6 L62.8 -13.5 L47.2 -13 L42.4 -13.8 L47.1 -17.9 L50.3 -19.1 L60 -17.7 L66.2 -15.2 L72.2 -14.8 L67.3 -18.9 L70.4 -20.5 L74 -20 L75.1 -18 Z M646.7 5.5 L644.6 5.8 L633.4 5.3 L632.5 3.4 L626.2 2.2 L625.7 -0.1 L629.2 -1 L629.1 -3.3 L636 -7 L632.8 -7.5 L641 -11.2 L640.1 -13.2 L647.8 -15.4 L659.2 -18.2 L670.7 -19 L676.6 -20.6 L683.3 -21.1 L685.7 -19.4 L683.4 -18.1 L671.2 -16 L660.6 -13.9 L649.9 -9.9 L644.8 -5.7 L639.4 -1.6 L640.1 2 L646.7 5.5 Z M121.8 -21.8 L125.6 -20.4 L132.4 -20.4 L135.4 -19 L134.6 -17.4 L138.5 -16.4 L140.7 -15.4 L145.4 -15.2 L150.4 -14.9 L155.9 -15.8 L162.9 -16.2 L168.5 -15.9 L172.2 -14.3 L173 -12.5 L170.8 -11.4 L165.7 -10.4 L161.3 -11 L151.4 -10.3 L144.3 -10.2 L138.7 -10.8 L129.6 -12.1 L128.4 -14.5 L128 -16.6 L124.5 -18.5 L117.4 -19 L113.4 -20.3 L114.7 -22.1 L121.8 -21.8 Z M47.6 -24.1 L47.1 -20.8 L44.5 -19.4 L41.2 -19.2 L34.8 -17.3 L29.3 -16.7 L24.6 -17.6 L24.6 -17.6 L30.5 -20.8 L37.6 -23.6 L42.9 -23.5 L47.6 -24.1 Z M817.1 -21.3 L818.1 -19.1 L821.2 -20.2 L831.3 -20.1 L839.1 -18 L841.8 -16.4 L841 -14.2 L837.2 -13 L828.1 -10.6 L825.5 -9.3 L829.8 -8.7 L834.9 -7.6 L838 -8.4 L839.8 -5.7 L841.3 -6.8 L846.8 -7.5 L857.8 -6.8 L858.7 -4.8 L873.1 -4.2 L873.3 -7.4 L880.6 -6.7 L886.1 -6.7 L891.7 -4.4 L893.3 -1.7 L891.2 0.1 L895.6 3.4 L901 5.2 L904.3 0.7 L909.9 2.6 L915.7 1.5 L922.4 2.8 L924.9 1.6 L930.6 2.2 L928.1 -1.8 L932.6 -3.6 L963.8 -0.9 L966.7 1.7 L975.8 4.9 L989.7 4.1 L996.5 4.8 L999.4 6.6 L999 9.7 L1003.2 11 L1007.9 10.1 L1014 10 L1020.5 10.8 L1027 10.3 L1033 14.1 L1037.3 12.8 L1034.5 10 L1036 8.1 L1047 9.3 L1054.2 9.1 L1064.1 11.1 L1069 13 L1069 30 L1068.9 30 L1064.5 31.9 L1060 31.6 L1063.1 33.9 L1065.2 37.4 L1066.8 38.5 L1067.2 40.3 L1066.3 41.4 L1059.9 40.5 L1050.2 43.7 L1047.2 44.2 L1041.9 47.2 L1036.9 49.8 L1035.6 51.8 L1030.7 48.8 L1021.7 52.2 L1020.1 50.6 L1016.8 52.4 L1012.2 51.8 L1011.1 54.7 L1007 58.8 L1007.1 60.5 L1011 61.5 L1010.5 67.7 L1007.3 67.9 L1005.9 71.4 L1007.3 73.3 L1001.3 75.5 L1000.1 80.3 L994.9 81.4 L993.9 85.7 L988.9 89.7 L987.7 86.8 L986.2 80.5 L984.3 71 L985.9 65.1 L988.8 62.5 L989 60.5 L994.4 59.6 L1000.5 54.2 L1006.5 49.8 L1012.7 46.4 L1015.4 40.4 L1011.2 40.7 L1009.2 44.3 L1000.4 49 L997.6 43.7 L988.7 45.2 L980.1 52.3 L982.9 54.9 L975.2 56.1 L969.9 56.5 L970.1 53.4 L964.8 52.8 L960.5 54.9 L950 54.1 L938.6 55.4 L927.4 63.7 L914.2 73.8 L919.7 74.3 L921.4 77 L924.7 78 L926.9 75.8 L930.7 76.1 L935.7 80.8 L935.8 84.4 L933.1 88.7 L932.8 93.8 L931.2 100.7 L926.1 106.8 L924.9 109.8 L920.2 114.8 L915.6 119.7 L913.3 122.2 L908.7 124.7 L906.6 124.8 L904.4 122.7 L899.8 125.8 L899.2 127.3 L897.9 127 L896.4 128.5 L895.4 129.9 L895.5 133 L893.8 133.9 L893.1 134.7 L891.8 135.9 L889.5 136.6 L888 137.8 L887.9 139.6 L887.5 140.1 L888.9 140.8 L890.9 142.7 L893.8 147.7 L894.7 150.5 L894.7 155.4 L893.4 157.8 L890.3 158.6 L887.5 160.4 L884.4 160.7 L884 158.4 L884.7 155.2 L883.2 150.7 L885.7 150 L883.4 146.4 L881.7 145.6 L881.3 146.4 L880.3 146.7 L880.1 145.9 L879.2 145.5 L878.3 144.8 L879.3 143 L880.1 142.5 L879.8 141.7 L880.6 139.4 L880.4 138.7 L878.4 138.2 L876.8 137.1 L872 138.3 L869.4 140.3 L865.7 141.5 L867.5 139.5 L866.8 137.8 L869.5 134.9 L867.7 132.7 L864.7 134.2 L860.8 137.2 L858.7 139.9 L855.3 140.2 L853.6 142.1 L855.4 145 L858.2 145.7 L858.3 147.7 L861 148.9 L864.9 145.9 L868 147.5 L870.2 147.6 L870.8 149.9 L865.9 151.1 L864.3 153.4 L860.9 155.5 L859.1 158.5 L862.9 160.9 L864.2 165.1 L866.3 169 L868.6 172.3 L868.6 175.4 L866.4 176.6 L867.3 178.9 L869.3 180.2 L868.8 183.7 L867.9 187.1 L866 187.5 L863.4 192.1 L860.6 197.7 L857.4 202.8 L852.7 206.7 L847.9 210.3 L844 210.8 L841.9 212.7 L840.7 211.3 L838.8 213.5 L833.9 215.6 L830.3 216.3 L829.1 220.8 L827.2 221 L826.3 217.9 L827.1 216.3 L822.5 214.9 L820.9 215.6 L816.3 219.2 L813.4 223.3 L812.6 226.2 L815.3 230.8 L818.5 236.3 L821.6 239 L823.7 242.4 L825.3 250.3 L824.8 257.8 L822 260.6 L818 263.4 L815.2 267 L810.9 270.9 L809.6 268.2 L810.6 265.3 L808 262.9 L805.2 262.3 L803.8 260 L802 255.6 L798.9 253.7 L796 253.7 L796.5 250.4 L793.4 250.4 L793.2 255.1 L791.3 261.3 L790.2 265.1 L790.4 268.2 L792.7 268.3 L794.1 272.2 L794.7 275.9 L796.6 278.4 L798.7 278.9 L800.5 281.1 L801.3 281.5 L803.3 284.1 L804.8 286.9 L805 289.8 L804.6 291.8 L804.9 293.2 L805.2 295.8 L806.4 296.9 L807.8 300.7 L807.7 302.2 L805.2 302.5 L802 299.3 L797.9 295.9 L797.5 293.7 L795.5 290.9 L795 287.3 L793.8 285 L794.2 281.9 L793.4 280.1 L792 278.4 L791.4 276.3 L789.6 273.9 L787.9 271.9 L787.4 274.4 L786.7 272 L787.1 269.3 L788.1 265.2 L787.8 262.1 L788.8 258.8 L787.7 256.3 L788 251.6 L786.6 249.4 L785.4 244.3 L784.8 238.9 L783.3 235.3 L781.1 237.5 L777.1 240.5 L775.2 240.2 L773.1 239.2 L774.3 233.9 L773.5 229.9 L770.8 224.9 L771.3 223.4 L769.2 222.8 L766.8 219.4 L765.8 217.1 L765.6 214.9 L764.9 212.9 L763.5 210.4 L760.3 210.2 L760.6 212 L759.6 214.4 L758.1 213.5 L757.6 214.3 L756.6 213.8 L755.3 213.4 L754.8 215 L752.4 214.9 L748.2 215.8 L748.4 219 L746.5 221.6 L741.6 224.5 L737.7 229.5 L735.1 232.2 L731.7 235 L731.7 236.9 L730 238 L726.9 239.5 L725.3 239.7 L724.2 243 L724.9 248.6 L725.1 252.1 L723.7 256.2 L723.6 263.4 L721.9 263.6 L720.3 266.9 L721.3 268.3 L718.2 269.5 L717 272.4 L715.7 273.7 L712.4 269.7 L710.8 263.7 L709.5 259.4 L708.3 257.3 L706.4 253.2 L705.6 247.9 L705 245.2 L701.8 239.4 L700.4 231.1 L699.4 225.6 L699.4 220.4 L698.7 216.4 L693.7 219 L691.3 218.5 L686.8 213.3 L688.4 211.7 L687.4 210.1 L683.4 206.4 L680.8 205.4 L679.8 202.3 L677.1 199 L670.8 199.8 L665.2 199.9 L660.3 200.5 L653.8 199.2 L650.1 198.2 L646.2 197.7 L644.7 192.5 L643.1 191.7 L640.4 192.5 L636.9 194.5 L632.7 193.1 L629.3 189.8 L625.9 188.6 L623.6 184.6 L621.1 178.9 L619.2 179.5 L617 178.1 L615.8 179.8 L613.7 179.6 L614.4 181.5 L614.1 182.5 L615.2 185.7 L616.6 189.4 L618.3 190.3 L618.9 191.8 L621.2 193.6 L621.4 195.4 L621.1 196.8 L621.5 198.3 L622.5 199.5 L623 200.9 L623.5 201.9 L623.3 198.8 L624.2 196.6 L625.1 196.1 L626.2 197.4 L626.2 199.9 L625.5 202.4 L626.1 204.1 L626.8 203.9 L626.9 205 L629.6 204.4 L632.4 204.5 L634.5 204.6 L636.9 201.7 L639.4 199 L641.6 196.3 L642.6 194.9 L643.1 195.3 L642.7 197 L642.3 197.8 L642.7 201.2 L644.3 204.1 L646.2 205.6 L648.7 206.2 L650.8 207 L652.3 209.4 L653.3 210.9 L654.5 211.4 L654.5 212.3 L653.2 214.9 L652.7 216.1 L651.2 217.5 L650 220.4 L648.4 220.2 L647.7 221.2 L647.1 223.4 L647.5 226.2 L647.2 226.7 L645.6 226.7 L643.5 228.3 L643.1 230.4 L642.4 231.3 L640.2 231.3 L638.9 232.3 L638.9 234.1 L637.2 235.3 L635.3 234.8 L633 236.3 L631.4 236.5 L628.9 237.7 L628.2 239.6 L628.2 241 L624.7 242.8 L619.2 244.8 L616.1 247.8 L614.6 248.1 L613.6 247.8 L611.6 249.6 L609.4 250.4 L606.5 250.7 L605.6 250.9 L604.8 252 L603.9 252.3 L603.4 253.4 L601.7 253.3 L600.6 253.9 L598.2 253.7 L597.3 251.2 L597.4 248.9 L596.9 247.6 L596.2 244.4 L595.2 242.7 L595.9 242.5 L595.5 240.5 L595.9 239.7 L595.8 237.8 L595.3 236 L594.3 234.7 L594 233 L592.3 231.5 L590.4 227.9 L589.4 224.4 L587.1 221.5 L585.5 220.8 L583.2 216.7 L582.8 213.7 L583 211.2 L581 206.5 L579.4 204.8 L577.5 203.9 L576.4 201.5 L576.6 200.5 L575.6 198.3 L574.6 197.3 L573.3 194.1 L571.2 190.7 L569.4 187.8 L567.7 187.8 L568.2 185.4 L568.4 183.9 L568.8 182.2 L568.7 181.6 L567.7 183.3 L567 186.6 L566 188.8 L565.2 189.5 L564.1 188.2 L562.5 186.2 L560.1 180.1 L559.7 180.5 L561.2 185 L563.3 189.3 L565.9 196 L567.2 198.3 L568.3 200.7 L571.4 205.4 L570.7 206.2 L570.8 209 L574.8 212.8 L575.4 213.7 L576.5 217.9 L575.8 218.6 L576.3 223 L577.5 228.1 L578.8 229.2 L580.7 230.8 L582.7 235.7 L583.7 239.6 L585.6 241.7 L590.3 245.8 L592.2 248.2 L594.1 250.7 L595.1 252.1 L596.8 253.4 L597.6 254.7 L597.5 256.5 L595.6 257.5 L597.1 258.7 L598.2 259.5 L598.9 261.3 L600.4 263.1 L602.1 263.1 L605.4 262 L609.1 261.5 L612.2 260.1 L613.9 259.9 L615.1 259.1 L617.1 258.9 L618.2 258.8 L619.8 258.2 L621.6 257.8 L623.2 256.3 L624.5 256.3 L624.6 257.5 L624.3 260 L624.3 262.2 L623.6 263.8 L622.6 268.4 L620.9 273.2 L618.8 278.6 L615.8 284.9 L612.9 289.7 L608.8 295.5 L605.4 298.9 L600.2 303.2 L597 306.4 L593.2 311.6 L592.5 313.9 L591.7 314.9 L589.3 316.6 L588.4 318.4 L587.1 318.7 L586.6 321.7 L585.5 323.4 L584.8 326.3 L583.5 327.7 L581.9 332.9 L582.1 335.4 L584.3 336.9 L584.4 338 L583.4 340.6 L583.6 341.9 L583.4 344 L584.6 346.6 L586 350.8 L587.3 351.8 L587.9 353.7 L587.7 358 L588.1 361.7 L588.3 368.4 L588.9 370.5 L587.9 373.5 L586.5 376.5 L584.3 379.1 L581.2 380.8 L577.3 382.8 L573.4 387.4 L572.1 388.2 L569.6 391.3 L568.2 392.2 L567.9 395.3 L569.6 398.5 L570.3 401 L570.3 402.3 L570.9 402.1 L570.8 406.3 L570.2 408.3 L571.1 409 L570.5 410.8 L569.1 412.3 L566.3 413.7 L562.1 416.1 L560.6 417.6 L560.9 419.4 L561.8 419.7 L561.5 422 L560.6 425.1 L560.2 428.6 L559.3 430.6 L557 432.7 L556.3 433.3 L554.8 435.5 L553.9 437.7 L551.9 440.8 L548 445.2 L545.6 447.7 L543 449.7 L539.4 451.3 L537.6 451.6 L537.2 452.8 L535.1 452.1 L533.4 452.9 L529.6 452.1 L527.5 452.6 L526.1 452.4 L522.6 454.1 L519.6 454.8 L517.5 456.4 L515.9 456.5 L514.5 455 L513.3 454.9 L511.8 453 L511.6 453.6 L511.2 452.4 L511.2 449.9 L510.1 447.1 L511.2 446.3 L511.1 443 L508.9 439 L507.1 435.4 L507.1 435.4 L504.6 429.8 L502.1 426.6 L500.7 423.5 L500 419.3 L499.1 416.2 L498 409.6 L497.9 404.5 L497.4 402.2 L496.1 400.4 L494.3 396.9 L492.5 391.8 L491.8 389.1 L488.9 384.9 L488.7 381.6 L488.4 378.9 L488.9 375.2 L490.1 371.3 L490.3 369.4 L491.4 365.6 L492.2 363.8 L494.2 361 L495.3 359.1 L495.7 356 L495.5 353.6 L494.4 352 L493.5 349.4 L492.7 346.9 L492.9 346 L493.9 344.3 L492.9 340.2 L492.2 337.3 L490.4 334.6 L490.8 333.8 L490.3 332.4 L489.4 329.2 L486.5 324.7 L483 320.4 L480.7 316.9 L478.6 312.4 L478.7 311 L479.5 309.7 L480.3 306.5 L481 303.4 L480.4 302.7 L481.5 297.9 L482.1 294.6 L480.7 291.7 L479.1 291 L478.4 289.1 L477.5 288.5 L477.6 287.3 L474 288.8 L472.7 288.6 L471.4 289.6 L468.6 289.5 L466.8 286.8 L465.6 283.7 L463.2 280.9 L460.6 280.9 L457.6 280.9 L454.7 281.4 L451.9 282.4 L446.5 284.9 L444.6 286.3 L441.5 287.6 L438.4 286.3 L436.9 286.4 L434.5 285.6 L432.2 285.6 L428.2 286.4 L425.8 287.6 L422.3 289.2 L421.7 289 L420.8 289.1 L417.2 287 L414.1 283.8 L411.2 281.5 L408.8 278.7 L407.9 278.4 L405.4 276.7 L403.6 274.4 L403 272.8 L402.6 269.6 L401.1 267.1 L399.7 265.4 L398.9 264.9 L398 264 L397.6 262.2 L397.1 261.2 L396.1 260.5 L394.3 258.7 L392.8 258.4 L392 257.2 L392 256.6 L391 255.7 L390.8 254.8 L390.2 251.5 L390.6 249.6 L389.2 246.3 L387.5 244.7 L389 243.9 L390.7 240.9 L391.5 238.7 L391.2 236.4 L392.2 234.3 L392.6 230.3 L392.2 226.1 L391.8 224 L392.1 221.8 L391.3 219.8 L389.4 217.9 L389.6 216.1 L389.7 214.2 L391.1 213 L392.2 210.8 L392 209.3 L393.2 206.3 L395.1 203.6 L396.2 202.9 L397.2 200.4 L397.2 198.1 L398.5 195.5 L400.8 193.9 L403 189.6 L404.8 187.9 L408 187.4 L410.7 184.5 L412.4 183.3 L415.3 179.8 L414.4 174.5 L415.7 170.8 L416.2 168.5 L418.4 165.6 L421.9 163.7 L424.4 161.9 L426.7 157.5 L427.8 154.9 L430.4 154.9 L432.4 156.7 L435.7 156.4 L439.3 157.4 L440.8 157.4 L444.1 155.1 L447.8 154.3 L450 152.6 L453.3 151.3 L459.2 150.5 L464.9 150.1 L466.6 150.8 L469.9 149.1 L473.6 149.1 L475 150.1 L477.3 149.8 L481.1 148.1 L483.5 148.6 L483.4 150.8 L486.3 149.2 L486.6 150 L484.8 152.1 L484.8 154.1 L486 155.1 L485.5 158.8 L483.3 161 L483.9 163.3 L485.7 163.4 L486.6 165.4 L487.9 166.1 L491.9 167.6 L493.4 167.2 L496.3 167.9 L500.8 169.8 L502.5 173.6 L505.6 174.4 L510.4 176.2 L514.1 178.3 L515.8 177.2 L517.4 175.3 L516.6 172 L517.7 169.9 L520.2 167.9 L522.6 167.3 L527.2 168.2 L528.4 170.1 L529.7 170.1 L530.8 170.9 L534.2 171.4 L535.1 172.8 L539.6 172.7 L543 173.8 L546.4 175.1 L548 175.8 L550.6 174.4 L552.1 173.2 L555.1 172.8 L557.5 173.4 L558.5 175.5 L559.3 174.1 L562 175.1 L564.7 175.4 L566.4 174.3 L567.4 172.9 L567.2 172.6 L568.1 170.6 L568.8 167.4 L569.3 166.3 L569.4 166.3 L570.6 162.8 L572.3 159.8 L572.4 159.6 L572.1 156.4 L572.9 154.6 L571.7 152.7 L573 151.1 L570.9 151.4 L568 150.4 L565.6 152.9 L560.4 153.4 L557.6 151.1 L553.9 150.9 L553.1 152.7 L550.7 153.2 L547.4 151 L543.6 151 L541.5 146.8 L539 144.4 L540.7 141.1 L538.5 139 L542.3 135 L547.7 134.8 L549.1 131.5 L555.7 132.1 L559.8 129.3 L563.8 128.1 L569.5 128 L575.6 131 L580.5 132.7 L584.5 132 L587.5 132.4 L591.6 130.2 L592.1 128.4 L591.2 125.4 L589.2 123.9 L587.3 123.4 L586.1 122.1 L581.7 118.5 L577.7 116.8 L574.7 114.3 L577.3 113.7 L580.1 110.1 L578.2 108.4 L583.3 106.6 L583.2 105.7 L580.1 106.4 L577.3 106.7 L575 108.1 L571.8 108.4 L568.8 109.9 L569 112.6 L570.7 113.6 L574.2 113.4 L573.6 114.9 L569.8 115.6 L565.1 118.1 L563.2 117.2 L564 115.2 L560.2 114 L560.8 113.2 L564.1 111.7 L563.1 110.8 L557.7 109.7 L557.5 108.1 L554.3 108.6 L553 111 L550.4 114.1 L550.4 115.2 L548.8 116.2 L547.7 115.8 L546.8 120.9 L545 122.7 L543.7 125.7 L544.8 128.2 L545.2 129.8 L548.2 131.2 L547.6 132.2 L543.5 132.5 L542 133.8 L539.2 136.1 L538.1 134.1 L538.1 133.2 L536 133.1 L534.2 132.7 L530.1 133.8 L532.4 136.2 L530.7 136.9 L528.8 136.9 L526.9 134.7 L526.3 135.7 L527.1 138.2 L528.8 140.2 L527.5 141.2 L529.4 143.1 L531.1 144.4 L531.2 146.8 L528 145.6 L529 147.8 L526.8 148.3 L528.1 152 L525.8 152.1 L523 150.2 L521.7 146.8 L521.1 144 L519.8 142 L518 139.6 L517.8 138.4 L517.2 138.1 L517.1 137.1 L515.2 135.7 L514.9 133.6 L515.2 130.7 L515.7 129.4 L515.1 128.7 L514.4 128.4 L513.4 127 L511.9 126.2 L508.7 124.6 L506.7 123 L503.5 121.8 L500.6 118.6 L501.3 118.3 L499.7 116.5 L499.7 115.1 L497.4 114.4 L496.4 116.2 L495.4 114.8 L495.4 113.3 L495.6 113.2 L496.3 112.9 L493.6 112.2 L490.8 113.8 L491 115.9 L490.6 117.1 L491.7 119.3 L494.9 121.4 L496.7 125 L500.5 128.4 L503.2 128.4 L504 129.3 L503.1 130.2 L506.2 131.7 L508.7 133 L511.6 135.2 L512 136 L511.4 137.6 L509.4 135.6 L506.4 134.9 L505 137.6 L507.5 139.2 L507.1 141.4 L505.6 141.7 L503.8 145.4 L502.4 145.7 L502.4 144.4 L503.1 142.1 L503.8 141.2 L502.5 138.7 L501.4 136.5 L500 136 L499 134.2 L496.8 133.4 L495.3 131.7 L492.7 131.4 L490 129.5 L486.9 126.7 L484.5 124.2 L483.4 120 L481.7 119.5 L478.9 118.1 L477.3 118.7 L475.3 120.7 L473.9 121 L470.8 123.4 L464 122.2 L459 123.6 L458.6 126.2 L458.8 128.7 L455.5 131.5 L451.1 132.4 L450.8 133.9 L448.6 136.2 L447.3 139.7 L448.7 142.1 L446.7 144 L445.9 146.8 L443.3 147.7 L440.9 151 L436.5 151 L433.2 150.9 L431.1 152.5 L429.7 154.1 L428 153.7 L426.8 152.3 L425.8 149.8 L422.6 149.2 L421.2 150.3 L419.4 149.7 L417.6 150.1 L418.1 146.8 L417.8 144.2 L416.3 143.8 L415.4 142.1 L415.7 139.4 L417.1 137.8 L417.3 136.1 L418 133.5 L418 131.7 L417.3 130.2 L417.1 128.7 L417.3 125.7 L415.9 123.8 L420.8 120.7 L425 121.5 L429.6 121.5 L433.3 122.2 L436.1 122 L441.7 122.1 L443.5 119.6 L444.2 111 L440.6 106.6 L438.1 104.4 L432.8 102.8 L432.4 99.6 L436.9 98.7 L442.7 99.8 L441.6 95 L444.9 96.8 L452.9 93.5 L453.9 90 L456.9 89.1 L459.7 88.3 L461.5 87.1 L464.5 80.8 L469.2 79 L472.1 79.1 L472.8 78.2 L475.6 78 L476.3 78.9 L478.6 76.8 L477.8 75.2 L477.7 72.8 L476.3 70.4 L476.2 66.1 L476.7 64.9 L477.7 63.6 L480.8 63.4 L482 62.2 L484.8 61 L484.6 63.2 L483.6 64.6 L484 65.8 L485.9 66.4 L485.1 68 L484 67.6 L481.6 70.6 L482.5 72.7 L482.6 74.4 L486 75.4 L486 76.9 L489.5 76.1 L491.4 74.9 L495.3 76.6 L497 78 L499.3 76.7 L504.7 74.7 L509 73.3 L512.5 74 L512.7 75 L516.1 75.1 L516.9 73.2 L521.6 71.8 L520.9 68.2 L521 65 L522.7 62.3 L525.9 60.9 L528.7 64.1 L531.5 64 L532.1 60.7 L532.5 58.2 L531.2 58.7 L529.1 57.2 L528.8 54.8 L533.1 53.6 L537.5 52.9 L541.2 53.6 L544.8 53.5 L548.7 51.2 L545.1 49.1 L538.8 49.5 L532.7 51 L527.1 51.9 L525.1 49.6 L521.8 48.2 L522.6 44 L520.9 40.1 L522.5 37.7 L525.7 35 L533.6 30.3 L535.9 29.4 L535.5 27.6 L530.7 25.6 L524.8 26.8 L521.4 29.8 L522 32.4 L516.5 35.9 L509.8 39.5 L507.3 45.5 L509.8 48.6 L513.1 50.9 L509.9 55.8 L506.3 56.8 L505 63.9 L503 67.9 L498.9 67.5 L496.9 70.9 L492.9 71.1 L491.8 67.1 L488.9 62.2 L486.3 56.2 L484 53.5 L477.2 58.5 L472.6 59.5 L467.8 57.3 L466.6 52.7 L465.5 42.9 L468.7 40.1 L477.8 36.5 L484.6 32.1 L490.9 26.2 L499.2 17.9 L505 14.7 L514.4 9.3 L522 7.5 L527.7 7.7 L532.9 4.1 L539.2 4.3 L545.4 3.5 L556.2 6.6 L551.7 7.8 L555.5 10.4 L559.1 8.9 L564.7 11.5 L574.2 12.5 L587.2 17.4 L589.9 19.4 L590.1 22.3 L586.3 24.5 L580.6 25.6 L565.2 22.4 L562.7 22.9 L568.3 26.1 L568.8 32.4 L573.2 33.7 L575.9 34.8 L576.4 32.8 L574.2 30.9 L576.5 29.3 L584.8 32 L587.7 30.9 L585.4 27.8 L593.4 23.6 L596.6 23.9 L599.8 25.3 L601.8 22.4 L599 19.9 L600.6 17.3 L598.1 14.7 L607.8 16 L609.7 18.4 L605.4 18.9 L605.4 21.3 L608.1 22.8 L613.4 21.9 L614.3 19.1 L621.5 17.1 L633.5 13.4 L636.1 13.6 L632.7 16.2 L637 16.7 L639.5 15.2 L645.9 15.1 L651 13.3 L655 15.9 L658.9 13.1 L655.3 10.6 L657.1 9.2 L667.3 10.5 L672 11.8 L684.5 16.7 L686.8 14.5 L683.3 12.2 L683.2 11.3 L679.1 10.9 L680.2 8.9 L678.4 5.5 L678.3 4.1 L684.6 0.3 L686.9 -3.6 L689.4 -4.4 L698.6 -3.3 L699.3 -0.9 L696 2.5 L698.2 3.9 L699.3 6.9 L698.5 12.7 L702.3 15.4 L700.8 18.2 L694.1 24.3 L698 24.9 L699.4 23.4 L703.2 22.3 L704.1 20.2 L707.1 18.1 L705.1 15.7 L706.7 12.9 L702.9 12.5 L702.1 10.1 L704.8 5.8 L700.3 2.4 L706.5 -0.5 L705.7 -3.6 L707.4 -3.7 L709.3 -1.3 L707.9 2.8 L711.6 3.6 L710 0.5 L715.8 -1.1 L722.9 -1.4 L729.3 1.1 L726.2 -2.5 L725.9 -7 L731.9 -7.9 L740.2 -7.7 L747.7 -8.3 L744.9 -10.5 L748.9 -13.3 L752.8 -13.4 L759.5 -15.6 L768.6 -16.1 L769.8 -17.3 L778.8 -17.7 L781.6 -16.7 L789.4 -19 L795.7 -18.9 L796.7 -20.8 L800 -22.6 L808.1 -24.3 L814 -23 L809.3 -21.9 L817.1 -21.3 Z M617.6 131.3 L619.4 134.3 L621 134.5 L622 135.7 L619.2 136 L618.6 139.3 L618 140.8 L616.7 141.8 L616.8 143.9 L617.9 147.1 L621.2 148 L623.6 150.1 L628.5 150.9 L633.9 149.7 L634.2 148.7 L633.6 145.7 L634.1 141.2 L631.4 139.8 L632.3 136.9 L630 136.6 L630.7 133 L634 134.1 L637 132.7 L634.5 130.1 L633.5 127.7 L630.7 128.8 L630.4 131.9 L629.3 129.1 L629.1 128.1 L630 126.3 L629.3 124.8 L625.3 123.4 L623.8 119.5 L621.9 118.4 L621.7 117.1 L625.1 117.5 L625.2 114.3 L628.2 113.6 L631.2 114.3 L631.8 110.1 L631.2 107.5 L627.7 107.7 L624.8 106.6 L620.8 108.5 L617.6 109.4 L616 111.9 L612.7 112.6 L609.2 117.1 L612.4 121.1 L612 124 L615.8 129 L617.6 131.3 Z M124.7 -23.6 L123.1 -23.5 L116.7 -23.7 L115.7 -24.9 L122.7 -24.9 L125.1 -24.1 L124.7 -23.6 Z M68.3 -24.3 L61.9 -23.1 L56.8 -24.5 L59.6 -25.9 L64.6 -26.3 L69.5 -25.6 L68.3 -24.3 Z M533.5 -25 L525.8 -23.3 L519.7 -24.3 L522.1 -25.4 L520 -26.7 L527.2 -27.6 L528.6 -26 L533.5 -25 Z M70.1 -28.2 L65.9 -27.4 L60.2 -27.4 L60.3 -28 L63.8 -29.3 L65.6 -29.1 L70.1 -28.2 Z M117.8 -25.9 L112.7 -25 L109.9 -26 L108.4 -27.6 L108.2 -29.4 L112.6 -29.2 L114.6 -28.9 L118.8 -27.4 L117.8 -25.9 Z M103.2 -27 L104.6 -25.2 L99 -25.7 L93.3 -27.1 L85.6 -27.3 L88.9 -28.5 L84.8 -29.6 L84.5 -31.2 L91.3 -30.6 L100.6 -29.1 L103.2 -27 Z M810.6 -27 L791.2 -25.3 L797.5 -30.9 L800.3 -31.4 L802.9 -31.1 L811.6 -28.7 L810.6 -27 Z M511.2 -32.9 L522.6 -29.7 L513.9 -28 L512 -24.9 L508.9 -24.1 L507.3 -20.6 L503.1 -20.4 L495.7 -23 L498.9 -24.5 L493.7 -25.7 L487 -29.4 L484.3 -32.7 L493.7 -34.2 L495.6 -32.7 L500.5 -32.8 L501.8 -34.3 L506.9 -34.4 L511.2 -32.9 Z M536 -35.9 L542.8 -34.4 L537.7 -32.1 L527.7 -31.6 L517.5 -32.3 L516.9 -33.5 L511.9 -33.6 L508.2 -35.6 L518.8 -36.7 L523.8 -35.7 L527.3 -37 L536 -35.9 Z M624.6 -36.5 L620 -36 L616.9 -35.6 L616.4 -34.9 L612.4 -34.2 L608.6 -35.2 L610.6 -36.6 L602.9 -36.7 L609.7 -37.5 L614.9 -37.5 L615.6 -36.4 L617.6 -37.4 L620.8 -38.1 L625.9 -37.2 L624.6 -36.5 Z M792.9 -29.4 L785.4 -28.9 L775.8 -30.1 L770 -31.7 L767.4 -34.8 L762.7 -35.6 L771.6 -38.6 L779.1 -39.5 L785.8 -37.4 L793.7 -33.2 L792.9 -29.4 Z M148.2 -32.7 L152.4 -31.4 L147.6 -30.1 L141.3 -26.9 L135.2 -26.6 L128 -27.1 L124.3 -28.9 L124.4 -30.4 L127.1 -31.5 L120.8 -31.5 L117 -32.9 L114.8 -34.9 L117.2 -36.8 L119.6 -38.1 L123.1 -38.4 L121.6 -39.3 L129.6 -39.6 L134 -37.3 L139.8 -36.4 L145.5 -35.6 L148.2 -32.7 Z M212.1 -47.5 L221.3 -47.1 L228.7 -46.6 L235 -45.4 L234.8 -44.3 L226.4 -42.4 L218.1 -41.6 L215 -40.6 L222.5 -40.6 L214.3 -38 L208.7 -36.8 L202.8 -33.3 L195.7 -32.6 L193.5 -31.8 L183.1 -31.3 L187.8 -30.8 L185.4 -30 L188.3 -27.9 L185 -26.4 L179.7 -25.2 L178.1 -23.5 L173.2 -22.3 L173.7 -21.3 L179.6 -21.5 L179.7 -20.4 L170.5 -17.9 L161.5 -19 L151.3 -18.4 L146.2 -18.9 L139.7 -19.1 L139.3 -21.2 L145.6 -22.1 L143.9 -25.2 L146 -25.5 L155.3 -23.7 L150.6 -26.4 L145 -27.2 L147.8 -28.9 L153.9 -29.9 L154.8 -31.4 L150 -33.1 L148.5 -35.3 L157.9 -35.1 L160.7 -34.6 L166 -36.2 L158.3 -36.7 L146.2 -36.4 L140.1 -37.8 L137.2 -39.6 L133.2 -40.8 L132.5 -42.3 L137.6 -43.1 L141.6 -43.2 L148.4 -43.9 L153.4 -45.5 L157.7 -45.3 L161.4 -44.1 L164.1 -46.4 L168.6 -47.1 L174.8 -47.6 L185.3 -47.7 L187.2 -47.3 L197.1 -48 L204.6 -47.7 L212.1 -47.5 Z M354.8 -49.2 L376.4 -45.8 L370 -44.2 L356.8 -44 L338.3 -43.6 L340 -42.8 L352.2 -43.3 L362.6 -41.8 L369.3 -43.1 L372.2 -41.6 L368.4 -39.1 L377.2 -40.7 L393.9 -42.4 L404.2 -41.5 L406.2 -39.7 L392.1 -36.7 L390.2 -35.7 L379.2 -34.9 L387.1 -34.7 L383.1 -31.6 L380.3 -28.9 L380.4 -24.1 L384.6 -21.3 L379.2 -21.1 L373.5 -19.8 L379.9 -17.5 L380.7 -13.9 L377 -13.5 L381.5 -9.8 L373.8 -9.5 L377.8 -7.8 L376.7 -6.3 L371.8 -5.6 L367 -5.6 L371.3 -2.7 L371.4 -0.8 L364.6 -2.6 L362.8 -1.4 L367.4 -0.3 L372 2.3 L373.3 5.7 L367.1 6.5 L364.5 4.9 L360.2 2.4 L361.4 5.3 L357.4 7.6 L366.5 7.8 L371.2 8 L362 11.7 L352.6 15.1 L342.5 16.6 L338.7 16.6 L335.1 18.2 L330.3 22.7 L322.9 25.7 L320.5 25.9 L315.9 27 L311 28 L308 30.6 L308 33.6 L306.2 36.4 L300.6 39.8 L302 43.2 L300.5 46.7 L298.7 50.9 L293.8 51.1 L288.7 47.6 L281.9 47.6 L278.5 45.3 L276.2 41.1 L270.2 35.8 L268.5 33 L268 29.2 L263.2 25.2 L264.5 22.1 L262.2 20.6 L265.6 15.6 L270.8 14 L272.1 12.2 L272.9 8.8 L268.9 10.4 L267 11 L263.9 11.6 L259.7 10.2 L259.5 7.3 L260.8 5 L264 5 L271.1 6.1 L265.1 3.4 L262.1 1.9 L258.6 2.5 L255.7 1.5 L259.6 -2.5 L257.5 -4.1 L254.8 -7.1 L250.6 -11.6 L246.2 -13.2 L246.3 -15 L237 -17.5 L229.7 -17.8 L220.5 -17.7 L212.1 -17.4 L208.1 -18.7 L202.1 -21.4 L211.1 -22.7 L218.1 -23 L203.3 -24.1 L195.5 -25.8 L196 -27.5 L209.1 -29.5 L221.7 -31.6 L223 -33.2 L213.7 -34.7 L216.7 -36.4 L228.7 -39.4 L233.7 -39.8 L232.2 -41.8 L240.4 -42.9 L251 -43.6 L261.6 -43.6 L265.4 -42.3 L274.5 -44.6 L282.7 -43 L287.6 -42.7 L294.7 -41.3 L286.5 -43.6 L287 -45.4 L298.6 -48 L310.7 -47.8 L315.1 -49.4 L327.3 -49.8 L354.8 -49.2 Z"
        fill="#D7ECEE" stroke="#78C6D0" stroke-width="0.75" stroke-linejoin="round" stroke-linecap="round"/>
</svg>
