<svg width="198" height="125" viewBox="0 0 198 125" fill="none" xmlns="http://www.w3.org/2000/svg">
<g clip-path="url(#clip0_683_354)">
<path d="M188.19 25.3554C191.54 29.5954 199.71 39.9054 197.16 51.2154C196.75 53.0254 195.46 58.7654 190.62 62.2554C183.16 67.6454 175.61 61.6954 168.51 67.0254C164.68 69.9054 161.7 75.5254 162.68 80.1754C163.72 85.0854 168.6 86.1454 170.27 92.5854C170.27 92.5854 171.17 96.0554 170.27 100.515C168.14 111.115 149.67 118.875 140.09 121.565C112.91 129.175 62.2599 123.785 46.4099 87.2454C38.9799 70.1154 40.1199 48.2554 50.8599 31.3054C63.8099 10.8754 85.4199 5.92536 99.3999 2.72536C133.24 -5.02464 171.39 4.13536 188.19 25.3554Z" fill="#FCECC5"/>
<path d="M175.41 51.2591C180.611 50.1973 184.122 45.8887 183.254 41.6355C182.385 37.3823 177.466 34.7951 172.266 35.8569C167.065 36.9186 163.554 41.2273 164.422 45.4805C165.291 49.7337 170.21 52.3209 175.41 51.2591Z" fill="white"/>
<path d="M126.24 35.5954C123.71 37.4754 121.75 35.6654 117.94 38.1054C114.71 40.1754 114.38 42.5954 111.09 43.5054C110.34 43.7054 108.26 44.2754 106.4 43.3354C103.41 41.8154 104.49 38.1754 101.65 33.1754C98.79 28.1554 95.78 28.4654 95.34 25.1454C94.83 21.2654 98.37 16.5054 102.08 16.0154C105.35 15.5854 106.19 18.8054 110.77 20.2554C118.25 22.6254 123.02 16.2454 126.89 18.7754C131.03 21.4854 130.79 32.2354 126.25 35.6054L126.24 35.5954Z" fill="#F39C56"/>
<path d="M92.13 54.3053C93.27 56.9653 90.16 60.5553 89.67 61.1053C84.55 66.8253 75.16 65.0953 74.22 64.9053C68.29 63.7253 59.61 59.1253 58.75 50.9853C58.16 45.3953 61.17 38.5653 66.14 37.1253C69.98 36.0153 74.25 37.9253 76.66 40.3953C79.84 43.6553 78.17 46.2353 81.15 49.2353C85.17 53.2553 90.78 51.1653 92.13 54.3153V54.3053Z" fill="#97D4DD"/>
<path d="M111.71 92.3454C109.75 99.1154 107.78 105.885 100.91 109.295C95.3599 112.045 86.1699 112.825 80.9499 106.965C77.6299 103.235 75.7999 96.7054 78.8499 91.4654C80.9699 87.8354 85.1399 85.3354 88.9699 85.3554C91.6799 85.3754 92.1499 86.6454 94.7099 86.3454C98.5999 85.8954 98.9799 82.7954 102.87 81.8754C106.02 81.1254 110.13 82.1254 111.81 84.7454C112.56 85.9154 113.04 87.7554 111.71 92.3454Z" fill="#1E8094"/>
<path d="M28.96 40.8254C25.2 38.5554 25.79 31.3254 26.01 28.6254C26.9 17.7754 33.36 9.50538 38 4.76538C41.31 13.5954 43.35 21.0254 44.64 26.3954C46.15 32.6954 46.76 36.8054 44.5 39.0054C43.25 40.2154 41.21 40.4654 37.14 40.9754C32.76 41.5254 30.57 41.7954 28.96 40.8254Z" fill="#5F5F5F"/>
<path d="M35.1099 92.1454C27.8799 61.7454 29.0899 48.7554 32.6799 47.4954C33.1099 47.3454 34.6199 47.1654 37.6299 46.7954C40.6399 46.4254 42.1499 46.2454 42.5999 46.2954C49.7199 46.9954 50.6099 81.2754 50.7399 88.6154C50.7399 88.8254 50.7699 110.045 50.5799 115.625C50.4799 115.815 49.1099 118.435 46.1899 118.745C44.0399 118.975 42.4899 117.795 42.1699 117.535C40.2899 111.645 37.6699 102.905 35.1099 92.1554V92.1454Z" fill="#5F5F5F"/>
<path d="M32.6382 46.176L42.2984 45.0122C43.0606 44.9203 43.604 44.228 43.5121 43.4659C43.4203 42.7037 42.728 42.1603 41.9659 42.2521L32.3057 43.416C31.5435 43.5078 31.0001 44.2001 31.092 44.9623C31.1838 45.7244 31.8761 46.2679 32.6382 46.176Z" fill="#5F5F5F"/>
<path d="M48.7099 91.2653C25.2399 70.6353 18.7199 59.3353 20.9199 56.2353C21.1899 55.8653 22.3099 54.8453 24.5599 52.8053C26.8099 50.7653 27.9299 49.7453 28.3199 49.5253C34.5399 45.9853 55.0699 73.4353 59.4199 79.3553C59.5399 79.5253 71.8299 96.8253 74.8999 101.485C74.9299 101.695 75.3299 104.625 73.1199 106.565C71.4999 107.995 69.5499 107.925 69.1399 107.895C64.1999 104.175 57.0099 98.5653 48.7099 91.2653Z" fill="#727171"/>
<path d="M25.2799 41.9353C25.7599 38.4153 21.7399 35.4753 17.6399 31.9753C13.5299 28.4653 7.99991 23.2753 1.93991 15.9653C0.399914 21.4553 -2.44009 34.5653 4.20991 45.0653C5.26991 46.7453 9.51991 53.4353 14.0999 52.8753C15.8199 52.6653 17.2999 51.2353 20.2599 48.3953C23.4399 45.3253 25.0299 43.7953 25.2899 41.9353H25.2799Z" fill="#727171"/>
<path d="M20.0078 54.8226L26.9822 48.038C27.5324 47.5027 27.5446 46.6227 27.0093 46.0724C26.474 45.5221 25.594 45.51 25.0437 46.0453L18.0694 52.8299C17.5191 53.3652 17.507 54.2452 18.0423 54.7955C18.5775 55.3458 19.4576 55.3579 20.0078 54.8226Z" fill="#727171"/>
<path d="M149.32 106.025C146.77 108.475 140.87 107.365 137.06 104.985C130.3 100.765 129.67 92.2954 129.45 89.3854C129.21 86.1154 128.94 82.5654 131.64 80.2954C133.87 78.4154 137.55 77.8754 140.62 79.2254C144.84 81.0754 146.58 85.9054 146.81 88.9554C147.15 93.4954 144.26 95.8754 145.98 98.1554C147.24 99.8154 149.39 99.3654 150.36 101.155C151.21 102.735 150.52 104.885 149.33 106.035L149.32 106.025Z" fill="#095560"/>
<path d="M150.3 61.3954C149.51 69.0554 140.46 74.3354 132.6 74.3254C123.76 74.3054 114.45 67.4954 114.9 61.3954C115.32 55.8054 123.82 52.4854 128.28 50.7454C133.48 48.7154 139.33 46.4254 144.45 49.5654C148.41 51.9954 150.75 56.9354 150.29 61.3954H150.3Z" fill="#C3DD89"/>
</g>
<defs>
<clipPath id="clip0_683_354">
<rect width="197.645" height="124.552" fill="white"/>
</clipPath>
</defs>
</svg>
