<svg width="170" height="170" viewBox="0 0 170 170" fill="none" xmlns="http://www.w3.org/2000/svg">
<path d="M125.303 84.002C99.3756 112.99 85.1743 121.042 81.2783 118.325C80.8133 117.992 79.5314 116.608 76.9676 113.829C74.4038 111.051 73.1219 109.667 72.8455 109.186C68.3965 101.503 102.895 76.1469 110.335 70.7742C110.548 70.626 132.29 55.4467 138.147 51.655C138.411 51.618 142.093 51.1239 144.531 53.8535C146.328 55.8543 146.24 58.2628 146.202 58.7691C141.527 64.8705 134.477 73.7508 125.303 84.002Z" fill="#727171"/>
<path d="M63.3066 112.94C58.8829 112.347 55.188 117.312 50.7893 122.376C46.3781 127.453 39.8555 134.283 30.6686 141.767C37.5682 143.669 54.0443 147.177 67.2403 138.964C69.3517 137.654 77.7594 132.405 77.0556 126.749C76.7917 124.624 74.9945 122.796 71.4253 119.14C67.5671 115.213 65.6442 113.249 63.3066 112.928L63.3066 112.94Z" fill="#727171"/>
<path d="M79.5028 119.452L70.9762 110.838C70.3034 110.158 69.1975 110.143 68.5059 110.804C67.8144 111.465 67.7991 112.552 68.4719 113.232L76.9985 121.846C77.6712 122.526 78.7772 122.54 79.4688 121.879C80.1603 121.218 80.1756 120.131 79.5028 119.452Z" fill="#727171"/>
<path d="M31.5151 86.6C31.709 85.4976 33.291 85.4976 33.4849 86.6L35.5256 98.2036C35.5948 98.5967 35.8911 98.9111 36.2794 99.0033L46.9041 101.527C47.9293 101.771 47.9293 103.229 46.9041 103.473L36.2794 105.997C35.8911 106.089 35.5948 106.403 35.5256 106.796L33.4849 118.4C33.291 119.502 31.709 119.502 31.5151 118.4L29.4744 106.796C29.4052 106.403 29.1089 106.089 28.7206 105.997L18.0959 103.473C17.0707 103.229 17.0707 101.771 18.0959 101.527L28.7206 99.0033C29.1089 98.9111 29.4052 98.5967 29.4744 98.2036L31.5151 86.6Z" fill="#97D4DD"/>
<path d="M132.022 107.638C132.245 106.58 133.755 106.58 133.978 107.638L137.579 124.705C137.654 125.059 137.914 125.345 138.259 125.453L152.948 130.046C153.883 130.338 153.883 131.662 152.948 131.954L138.259 136.547C137.914 136.655 137.654 136.941 137.579 137.295L133.978 154.362C133.755 155.42 132.245 155.42 132.022 154.362L128.421 137.295C128.346 136.941 128.086 136.655 127.741 136.547L113.052 131.954C112.117 131.662 112.117 130.338 113.052 130.046L127.741 125.453C128.086 125.345 128.346 125.059 128.421 124.705L132.022 107.638Z" fill="#46CDE6"/>
<path d="M80.5206 29.7452C80.7402 28.6814 82.2598 28.6814 82.4794 29.7452L85.9798 46.7056C86.0528 47.0593 86.3108 47.3461 86.6547 47.456L101.02 52.0475C101.947 52.3439 101.947 53.6561 101.02 53.9525L86.6547 58.544C86.3108 58.6539 86.0528 58.9407 85.9798 59.2944L82.4794 76.2548C82.2598 77.3186 80.7402 77.3186 80.5206 76.2548L77.0202 59.2944C76.9472 58.9407 76.6892 58.6539 76.3453 58.544L61.9802 53.9525C61.0528 53.6561 61.0528 52.3439 61.9802 52.0475L76.3453 47.456C76.6892 47.3461 76.9472 47.0593 77.0202 46.7056L80.5206 29.7452Z" fill="#1E8094"/>
</svg>
